<?xml version="1.0" encoding="iso-8859-1"?>
<!-- Generator: Adobe Illustrator 19.0.0, SVG Export Plug-In . SVG Version: 6.00 Build 0)  -->
<svg version="1.1" id="Capa_1" xmlns="http://www.w3.org/2000/svg" xmlns:xlink="http://www.w3.org/1999/xlink" x="0px" y="0px" viewBox="0 0 512.001 512.001" xml:space="preserve">
<circle cx="254.301" cy="223.171" r="220.23"/>
<path d="M116.982,302.45C61.401,206.18,86.777,85.401,171.967,18.897
	C47.746,69.142-3.362,217.355,63.572,333.287c66.9,115.874,220.779,145.828,326.468,63.322
	C289.85,437.134,172.564,398.72,116.982,302.45z"/>
<path d="M192.283,11.526c-48.069,14.118-89.977,44.401-118.8,85.749
	c21.925-7.684,45.743-13.895,70.798-18.529C155.64,53.652,171.477,29.082,192.283,11.526z"/>
<path d="M73.576,97.243c13.303-4.658,27.31-8.768,41.859-12.319c13.966-25.052,32.953-47.621,56.531-66.027
	C133.185,34.583,98.641,61.221,73.576,97.243z"/>
<g>
	<path d="M392.659,215.101h81.719c-1.207-34.674-10.46-67.335-25.959-96.169
		c-23.316-9.622-49.406-17.368-77.276-23.067C384.399,131.272,391.856,172.21,392.659,215.101z"/>
	<path d="M162.98,75.616c26.91-4.04,55.012-6.302,83.56-6.649V3.065
		C208.469,7.312,180.29,41.488,162.98,75.616z"/>
	<path d="M246.54,442.649v-65.903c-28.548-0.347-56.649-2.609-83.56-6.649
		C180.325,404.293,208.511,438.407,246.54,442.649z"/>
</g>
<path d="M180.96,372.494c-6.043-0.717-12.045-1.506-17.98-2.397c17.344,34.195,45.531,68.309,83.56,72.552
	v-38.763C223.247,397.157,201.044,386.603,180.96,372.494z"/>
<g>
	<path d="M155.195,353.158c29.16,4.93,59.956,7.687,91.345,8.078V230.612H131.226
		C132.092,275.286,140.43,317.603,155.195,353.158z"/>
	<path d="M137.209,95.914c-27.779,5.694-53.787,13.422-77.036,23.015
		c-15.891,29.554-24.776,62.199-25.96,96.171h81.499C116.515,172.23,123.965,131.309,137.209,95.914z"/>
</g>
<g>
	<path d="M106.274,103.304c-16.215,4.454-31.615,9.656-45.964,15.57
		c-15.981,29.792-24.946,63.05-26.097,96.227h54.404C84.658,176.763,90.891,138.177,106.274,103.304z"/>
	<path d="M144.281,366.968c-25.056-4.633-48.874-10.845-70.799-18.529
		c28.547,40.962,70.308,71.49,118.8,85.75C178.562,422.61,155.642,392.067,144.281,366.968z"/>
</g>
<path d="M115.712,230.612H34.213c1.158,33.301,9.808,66.118,25.96,96.171
	c23.249,9.594,49.257,17.322,77.036,23.016C123.965,314.404,116.515,273.484,115.712,230.612z"/>
<path d="M127.517,318.962c-3.715-5.3-7.237-10.801-10.534-16.512c-13.228-22.911-21.861-47.212-26.203-71.838
	H34.213c1.152,33.105,9.711,65.936,25.96,96.171c23.249,9.594,49.257,17.322,77.036,23.016
	C133.516,339.928,130.291,329.615,127.517,318.962z"/>
<g>
	<path d="M131.226,215.101H246.54V84.478c-31.388,0.39-62.185,3.147-91.345,8.078
		C140.43,128.111,132.092,170.428,131.226,215.101z"/>
	<path d="M315.971,434.287c47.387-13.832,89.775-43.72,119.14-85.85
		c-21.996,7.709-45.897,13.936-71.041,18.575C352.771,391.959,336.927,416.646,315.971,434.287z"/>
	<path d="M371.144,349.848c27.87-5.699,53.96-13.445,77.276-23.067
		c16.011-29.788,24.786-62.478,25.958-96.169h-81.719C391.856,273.503,384.399,314.442,371.144,349.848z"/>
	<path d="M353.402,57.784c3.819,6.657,7.375,13.645,10.668,20.918c25.144,4.639,49.045,10.866,71.041,18.574
		c-28.429-40.809-70.297-71.582-119.143-85.853C329.735,23.013,342.379,38.571,353.402,57.784z"/>
	<path d="M345.373,370.133c-26.838,4.018-54.858,6.267-83.321,6.614v65.879
		C300.007,438.268,328.098,404.176,345.373,370.133z"/>
	<path d="M339.947,65.503c-21.351-37.215-48.763-59.07-77.896-62.415v65.878
		c28.463,0.346,56.483,2.596,83.321,6.613C343.628,72.143,341.825,68.775,339.947,65.503z"/>
	<path d="M353.159,92.516c-29.09-4.906-59.804-7.648-91.108-8.038v130.623h115.094
		C376.278,170.411,367.934,128.079,353.159,92.516z"/>
	<path d="M377.145,230.612H262.051v130.623c31.303-0.389,62.018-3.132,91.108-8.038
		C367.934,317.635,376.278,275.302,377.145,230.612z"/>
</g>
<path d="M488.5,314.83c-3.991-78.758-115.939-91.004-136.915-15.003c-1.156,4.203-1.911,8.127-2.291,13.004
	c-0.244,3.088-0.272,18.865-0.259,28.343h139.567C488.607,316.591,488.604,316.903,488.5,314.83z"/>
<path d="M401.627,299.827c6.739-24.415,22.871-39.709,41.791-46.63c-34.941-12.481-79.39,1.549-91.833,46.63
	c-1.156,4.203-1.911,8.127-2.291,13.004c-0.244,3.088-0.272,18.865-0.259,28.343h50.042
	C399.039,314.249,398.864,309.874,401.627,299.827z"/>
<path d="M492.176,509.022c12.217,0,21.525-10.945,19.563-23.004l-4.891-30.057
	c-1.403-7.097-2.204-18.899-15.797-24.613c-1.269-0.532-4.158-1.329-4.1-1.312c-59.616-21.059-4.751-1.679-31.119-10.962
	l-13.207-8.177v-15.716c-14.17,7.134-31.562,7.682-46.041,0.992l0.009,14.726l-13.58,8.319l-6.997,2.406h-0.015l0.002,0.005
	c-0.106,0.037-28.757,10.184-26.865,9.335c-7.523,2.809-13.884,8.994-14.773,17.649c-0.388,3.779-5.295,31.271-8.279,47.837
	c-1.18,6.553,3.857,12.572,10.515,12.572L492.176,509.022L492.176,509.022z"/>
<path d="M418.818,432.545l26.815-19.784l0,0l-3.008-1.862v-15.718c-14.17,7.134-31.562,7.682-46.041,0.992
	l0.009,14.726l-3.04,1.862L418.818,432.545z"/>
<path d="M418.958,400.852c-7.676,0.084-15.365-1.441-22.373-4.679l0.009,14.726l-3.04,1.862l24.835,19.447
	h0.569V400.852z"/>
<g>
	<path d="M396.594,410.898l22.224,21.646l-19.837,13.805c-2.895,2.015-6.913,0.665-8.005-2.688l-7.961-24.444
		L396.594,410.898z"/>
	<path d="M442.626,410.898l-23.808,21.646l19.837,13.805c2.895,2.015,6.913,0.665,8.005-2.688l9.172-24.586
		L442.626,410.898z"/>
</g>
<path d="M427.758,463.134c-6.253,0-11.627,0-17.88,0l-12.268,45.925c14.839,0,27.577,0,42.416,0
	L427.758,463.134z"/>
<path d="M418.818,432.545l-16.654,11.59l7.714,18.999c6.253,0,11.627,0,17.88,0l7.715-18.999L418.818,432.545
	z"/>
<path d="M427.758,463.134c-6.253,0-11.627,0-17.88,0L397.61,509.06h17.888l12.264-45.912L427.758,463.134z"/>
<path d="M416.11,434.429l-13.946,9.706l7.714,18.999c6.253,0,11.627,0,17.88,0l0.004-0.009L416.11,434.429z"/>
<g>
	<path d="M369.992,333.056c-12.113-4.317-26.183,3.711-26.183,15.423c0,11.709,14.068,19.741,26.183,15.423
		V333.056z"/>
	<path d="M467.668,333.056c12.114-4.317,26.183,3.711,26.183,15.423c0,11.709-14.068,19.741-26.183,15.423
		V333.056z"/>
</g>
<g>
	<path d="M345.614,341.506c-7.439,13.587,8.857,27.929,24.378,22.397v-13.947
		C360.49,353.343,349.788,349.13,345.614,341.506z"/>
	<path d="M467.668,349.956v13.947c12.115,4.317,26.183-3.714,26.183-15.423c0-2.525-0.657-4.878-1.804-6.974
		C487.872,349.13,477.171,353.343,467.668,349.956z"/>
</g>
<path d="M467.216,314.807c1.292,0.125,2.286,1.197,2.286,2.495c0,42.664,0.028,36.426-0.072,38.41
	c-2.899,57.205-84.211,66.1-99.448,10.897c-0.839-3.053-1.388-5.903-1.664-9.445c-0.284-3.583-0.166-23.033-0.166-22.971
	c0-9.936,8.818-17.516,18.652-16.097c15.488,2.236,38.095,1.367,57.821-15.495c2.027-1.733,5.103-1.173,6.398,1.158
	C453.468,308.163,458.329,313.949,467.216,314.807z"/>
<path d="M399.228,355.713c-0.098-1.957-0.072,4.084-0.072-36.724c-4.438,0.005-8.604-0.351-12.35-0.892
	c-9.834-1.419-18.652,6.161-18.652,16.097c0-0.062-0.118,19.388,0.166,22.971c2.621,33.632,34.284,53.79,66.01,44.09
	C415.86,395.607,400.46,380.027,399.228,355.713z"/>
<path d="M481.355,490.134c0-4.284-3.472-7.756-7.756-7.756c-4.283,0-7.756,3.472-7.756,7.756v18.888h15.511
	v-18.888H481.355z"/>
<path d="M160.477,314.83c-3.991-78.758-115.939-91.004-136.915-15.003c-1.156,4.203-1.911,8.127-2.291,13.004
	c-0.244,3.088-0.272,18.865-0.259,28.343h139.567C160.585,316.591,160.582,316.903,160.477,314.83z"/>
<path d="M73.604,299.827c6.739-24.415,22.871-39.709,41.791-46.63c-34.941-12.481-79.39,1.549-91.833,46.63
	c-1.156,4.203-1.911,8.127-2.291,13.004c-0.244,3.088-0.272,18.865-0.259,28.343h50.042
	C71.017,314.249,70.841,309.874,73.604,299.827z"/>
<path d="M164.154,509.022c12.217,0,21.525-10.945,19.563-23.004l-4.891-30.057
	c-1.403-7.097-2.204-18.899-15.797-24.613c-1.269-0.532-4.158-1.329-4.1-1.312c-59.616-21.059-4.751-1.679-31.119-10.962
	l-13.207-8.177v-15.716c-14.17,7.134-31.562,7.682-46.041,0.992l0.009,14.726l-13.58,8.319l-6.997,2.406h-0.015l0.002,0.005
	c-0.106,0.037-28.757,10.184-26.865,9.335c-7.523,2.809-13.884,8.994-14.773,17.649c-0.299,2.913-3.283,19.913-6.002,35.14
	c-2.352,13.174,7.777,25.27,21.159,25.27L164.154,509.022z"/>
<path d="M17.654,483.753c6.708-43.837,5.509-44.49,8.808-49.597c2.327-3.602,5.56-6.331,9.287-8.208
	c-14.937,5.25-14.732,5.06-14.633,5.016c-4.861,1.815-9.096,4.954-11.967,9.396c-2.929,4.533-1.649,3.293-8.808,43.393
	c-2.352,13.174,7.777,25.27,21.159,25.27h17.313C25.431,509.022,15.302,496.927,17.654,483.753z"/>
<path d="M90.796,432.545l26.815-19.784l0,0l-3.008-1.862v-15.718c-14.17,7.134-31.562,7.682-46.041,0.992
	l0.009,14.726l-3.04,1.862L90.796,432.545z"/>
<path d="M90.935,400.852c-7.676,0.084-15.365-1.441-22.373-4.679l0.009,14.726l-3.04,1.862l24.835,19.447
	h0.569V400.852z"/>
<g>
	<path d="M68.571,410.898l22.224,21.646l-19.837,13.805c-2.895,2.015-6.913,0.665-8.006-2.688l-7.961-24.444
		L68.571,410.898z"/>
	<path d="M114.603,410.898l-23.808,21.646l19.837,13.805c2.895,2.015,6.913,0.665,8.005-2.688l9.172-24.586
		L114.603,410.898z"/>
</g>
<path d="M99.736,463.134c-6.253,0-11.627,0-17.88,0l-12.268,45.925c14.839,0,27.577,0,42.416,0
	L99.736,463.134z"/>
<path d="M90.796,432.545l-16.654,11.59l7.714,18.999c6.253,0,11.627,0,17.88,0l7.715-18.999L90.796,432.545z"/>
<path d="M99.736,463.134c-6.253,0-11.627,0-17.88,0L69.588,509.06h17.888l12.264-45.912L99.736,463.134z"/>
<path d="M88.088,434.429l-13.946,9.706l7.714,18.999c6.253,0,11.627,0,17.88,0l0.004-0.009L88.088,434.429z"/>
<g>
	<path d="M41.97,333.056c-12.113-4.317-26.183,3.711-26.183,15.423c0,11.709,14.068,19.741,26.183,15.423
		V333.056z"/>
	<path d="M139.645,333.056c12.114-4.317,26.183,3.711,26.183,15.423c0,11.709-14.068,19.741-26.183,15.423
		V333.056z"/>
</g>
<g>
	<path d="M17.592,341.506c-1.148,2.096-1.804,4.449-1.804,6.974c0,11.709,14.068,19.741,26.183,15.423
		v-13.947C32.467,353.343,21.766,349.13,17.592,341.506z"/>
	<path d="M139.645,349.956v13.947c15.521,5.531,31.818-8.81,24.378-22.397
		C159.849,349.13,149.148,353.343,139.645,349.956z"/>
</g>
<path d="M139.194,314.807c1.292,0.125,2.286,1.197,2.286,2.495c0,42.664,0.028,36.426-0.072,38.41
	c-2.899,57.205-84.211,66.1-99.448,10.897c-0.839-3.053-1.388-5.903-1.664-9.445c-0.284-3.583-0.166-23.033-0.166-22.971
	c0-9.936,8.818-17.516,18.652-16.097c15.488,2.236,38.095,1.367,57.821-15.495c2.027-1.733,5.103-1.173,6.398,1.158
	C125.446,308.163,130.306,313.949,139.194,314.807z"/>
<path d="M71.205,355.713c-0.098-1.957-0.072,4.084-0.072-36.724c-4.438,0.005-8.604-0.351-12.35-0.892
	c-9.834-1.419-18.652,6.161-18.652,16.097c0-0.062-0.118,19.388,0.166,22.971c0.276,3.543,0.824,6.393,1.664,9.445
	c8.76,31.74,39.362,42.283,64.346,34.644C87.838,395.607,72.438,380.027,71.205,355.713z"/>
<path d="M44.84,509.022v-18.888c0-4.284-3.472-7.756-7.756-7.756s-7.756,3.472-7.756,7.756v18.888H44.84z"/>
<path d="M341.987,264.436c-5.018-99.021-145.768-114.418-172.142-18.863
	c-3.857,14.024-3.248,21.727-3.205,51.984h175.476C342.122,266.651,342.118,267.043,341.987,264.436z"/>
<path d="M221.999,261.922c2.608-33.453,23.625-65.114,59.303-76.296
	c-43.26-13.267-96.284,4.974-111.457,59.947c-3.857,14.024-3.248,21.727-3.205,51.984h55.034
	C221.657,285.641,221.692,265.805,221.999,261.922z"/>
<path d="M357.233,508.591c9.791,0,17.252-8.772,15.679-18.437l-7.856-48.276
	c-1.764-8.923-2.77-23.761-19.861-30.945c-0.104-0.044-43.802-15.136-44.383-15.495c-17.245-10.678-16.502-9.956-16.502-10.839
	v-17.361c0-0.823-0.854-1.35-1.599-1.001c-16.999,7.982-37.387,8.599-54.722,1.166c-0.741-0.318-1.565,0.21-1.564,1.016
	c0.011,17.607,0.225,16.67-0.523,17.128c-17.632,10.802-16.476,10.111-16.656,10.173l-8.682,2.985h-0.019l0.003,0.006
	c-0.113,0.039-36.097,12.779-33.776,11.737c-9.459,3.532-17.456,11.308-18.574,22.19c-0.457,4.442-5.88,34.949-9.649,55.921
	c-1.877,10.44,6.148,20.031,16.755,20.031L357.233,508.591z"/>
<path d="M158.138,488.56c0,0,9.193-58.718,9.649-63.16c0.914-8.895,6.323-15.791,13.983-20.065
	c-15.341,5.376-15.115,5.165-14.999,5.113c-9.459,3.532-17.456,11.308-18.574,22.19c-0.457,4.442-5.88,34.949-9.649,55.921
	c-1.877,10.44,6.148,20.031,16.755,20.031h19.59C164.286,508.591,156.261,499,158.138,488.56z"/>
<path d="M254.378,412.437l33.715-24.874l0,0l-3.782-2.342v-19.762c-17.816,8.969-39.682,9.658-57.887,1.247
	l0.012,18.515l-3.822,2.342L254.378,412.437z"/>
<path d="M254.377,412.437v-39.824c-9.593,0.074-19.197-1.86-27.954-5.906l0.012,18.515l-3.822,2.342
	L254.377,412.437z"/>
<g>
	<path d="M226.435,385.221l27.942,27.215l-24.941,17.357c-3.64,2.533-8.692,0.836-10.065-3.38l-10.009-30.732
		L226.435,385.221z"/>
	<path d="M284.31,385.221l-29.933,27.215l24.941,17.357c3.64,2.533,8.692,0.836,10.065-3.38l11.531-30.912
		L284.31,385.221z"/>
</g>
<path d="M265.632,450.861l-22.53-0.053l-15.389,57.829c16.967,0,36.362,0,53.329,0L265.632,450.861z"/>
<polygon points="265.632,450.861 243.102,450.808 227.713,508.637 250.982,508.637 265.874,451.771 "/>
<g>
	<path d="M192.99,287.351c-15.23-5.427-32.919,4.666-32.919,19.392c0,14.722,17.687,24.82,32.919,19.392
		L192.99,287.351L192.99,287.351z"/>
	<path d="M315.795,287.351c15.23-5.427,32.919,4.666,32.919,19.392c0,14.722-17.687,24.82-32.919,19.392
		V287.351z"/>
</g>
<g>
	<path d="M162.61,297.508c-1.607,2.751-2.539,5.87-2.539,9.235c0,14.722,17.687,24.82,32.919,19.392v-18.47
		C181.239,311.853,168.035,306.795,162.61,297.508z"/>
	<path d="M315.795,307.665v18.47c15.232,5.428,32.919-4.67,32.919-19.392c0-3.365-0.932-6.484-2.539-9.235
		C340.75,306.795,327.546,311.853,315.795,307.665z"/>
</g>
<path id="SVGCleanerId_0" d="M315.228,264.407c1.625,0.157,2.875,1.505,2.875,3.137
	c0,53.641,0.035,45.798-0.09,48.293c-3.645,71.923-105.878,83.107-125.034,13.701c-1.056-3.838-1.745-7.421-2.092-11.875
	c-0.357-4.505-0.208-28.959-0.208-28.881c0-12.492,11.086-22.023,23.45-20.238c19.473,2.811,47.896,1.719,72.698-19.481
	c2.549-2.178,6.416-1.475,8.044,1.456C297.943,256.053,304.054,263.329,315.228,264.407z"/>
<g>
	<path id="SVGCleanerId_0_1_" d="M315.228,264.407c1.625,0.157,2.875,1.505,2.875,3.137
		c0,53.641,0.035,45.798-0.09,48.293c-3.645,71.923-105.878,83.107-125.034,13.701c-1.056-3.838-1.745-7.421-2.092-11.875
		c-0.357-4.505-0.208-28.959-0.208-28.881c0-12.492,11.086-22.023,23.45-20.238c19.473,2.811,47.896,1.719,72.698-19.481
		c2.549-2.178,6.416-1.475,8.044,1.456C297.943,256.053,304.054,263.329,315.228,264.407z"/>
</g>
<path d="M221.765,315.837c-0.124-2.465-0.091,5.16-0.09-46.466c-2.634-0.197-5.158-0.482-7.546-0.827
	c-12.364-1.785-23.45,7.746-23.45,20.238c0-0.078-0.148,24.376,0.208,28.881c0.347,4.454,1.036,8.037,2.092,11.875
	c10.552,38.23,46.307,52,76.91,44.645C244.933,368.185,223.403,348.143,221.765,315.837z"/>
<path d="M254.378,412.437l-20.939,14.572l9.699,23.887c7.862,0,14.618,0,22.48,0l9.699-23.887
	L254.378,412.437z"/>
<path d="M250.988,414.796l-17.55,12.213l9.699,23.887c7.862,0,14.618,0,22.48,0l0.014-0.035L250.988,414.796z
	"/>
<g>
	<path d="M179.719,478.469c-4.283,0-7.756,3.472-7.756,7.756v22.366h15.511v-22.366
		C187.475,481.941,184.002,478.469,179.719,478.469z"/>
	<path d="M330.965,478.469c-4.283,0-7.756,3.472-7.756,7.756v22.366h15.511v-22.366
		C338.721,481.941,335.248,478.469,330.965,478.469z"/>
</g>
<g>
</g>
<g>
</g>
<g>
</g>
<g>
</g>
<g>
</g>
<g>
</g>
<g>
</g>
<g>
</g>
<g>
</g>
<g>
</g>
<g>
</g>
<g>
</g>
<g>
</g>
<g>
</g>
<g>
</g>
</svg>
