<?xml version="1.0" encoding="utf-8"?>
<!-- Generator: Adobe Illustrator 19.1.0, SVG Export Plug-In . SVG Version: 6.00 Build 0)  -->
<svg version="1.1" id="Layer_1" xmlns="http://www.w3.org/2000/svg" xmlns:xlink="http://www.w3.org/1999/xlink" x="0px" y="0px"
	 viewBox="49.9 10.5 113.4 34" style="enable-background:new 49.9 10.5 113.4 34;" xml:space="preserve">
<style type="text/css">
	.st0{fill:#FFFFFF;}
</style>
<g>
	<rect x="57.4" y="19" class="st0" width="3.6" height="17.5"/>
	<polygon class="st0" points="77.1,19 71.9,19 68.2,19 63,19 63,22.1 68.2,22.1 68.2,36.5 71.9,36.5 71.9,22.1 77.1,22.1 	"/>
	<g>
		<path class="st0" d="M123,25.3c-1.5-0.1-3.4,1.4-3.4,3.3c0,2.7,0,2.2,0,2.7c0,2.8,1.9,4.1,3.4,4.1c2.1,0,3.3-1.6,3.4-4.1
			c0,0,0-0.8,0-2.3C126.4,27.2,125.4,25.3,123,25.3z"/>
		<path class="st0" d="M136.5,25.4c-1.8,0-3.3,1.7-3.7,3.9h7.4C139.8,27.1,138.3,25.4,136.5,25.4z"/>
		<path class="st0" d="M49.9,10.5v34h113.4v-34H49.9z M82.8,43.4H51V11.6h31.8V43.4z M102.8,36.5h-13V19h12.5v2.2H92.2v5.3h9.7v2.2
			h-9.7v5.7h10.6C102.8,34.4,102.8,36.5,102.8,36.5z M113.3,36.7l-3.3-4.9l-3.4,4.9h-2.5l4.6-6.7l-4.2-6.1h2.5l3,4.2l2.9-4.2h2.5
			l-4.2,6.1l4.7,6.7H113.3z M128.7,31.8c0,2.2-1.9,5.2-5.3,5.2c-1.6,0-2.9-0.8-3.8-1.8v6.3h-2.1V24h2.1v1.6c0.9-1.2,2.1-2,3.6-2
			c3.5,0,5.5,3,5.5,5.4C128.7,29.9,128.7,31.3,128.7,31.8z M136.4,37.2c-3.3,0-6-3.1-6-6.8c0-3.8,2.7-6.8,6-6.8s5.6,3.1,5.6,6.8
			c0,0.2,0,0.4,0,0.6h-0.4h-1.3h-7.5c0.2,2.4,1.8,4.3,3.7,4.3c1.4,0,2.7-1,3.3-2.6h2.3C141.2,35.3,139,37.2,136.4,37.2z M151,25.8
			c-3.6-0.2-4.1,3.1-4.1,3.1v7.8h-2V23.9h2.1v2.4c0.4-1.5,1.4-2.1,2.2-2.3c0.4-0.1,1.8-0.1,1.8-0.1V25.8z M157.6,25.5h-2.1
			c0,0,0,6.4,0,8.6c0.1,0.8,0.2,1.1,2.1,1v1.6c0,0-1.7,0-2.3,0c-1.3,0-1.9-1.5-1.9-2c0-2.1,0-9.2,0-9.2h-1.8v-1.6h1.8v-3.6h2.1v3.6
			h2.1C157.6,23.9,157.6,25.5,157.6,25.5z"/>
	</g>
</g>
</svg>
