<svg xmlns="http://www.w3.org/2000/svg" xmlns:xlink="http://www.w3.org/1999/xlink" width="512.001" height="19723" viewBox="0 0 512.001 19723"><svg viewBox="0 0 512 512" width="512" height="512" id="analytics" y="0"><path d="M512 317.793H0V48.552c0-17.064 13.833-30.897 30.897-30.897h450.207c17.064 0 30.897 13.833 30.897 30.897v269.241zM361.931 494.345H150.069c0-19.5 15.81-35.31 35.31-35.31H326.62c19.501-.001 35.311 15.81 35.311 35.31m-44.138-35.311H194.207l17.655-70.62h88.276zm163.31-70.62H30.897C13.833 388.414 0 374.581 0 357.517v-39.724h512v39.724c0 17.064-13.833 30.897-30.897 30.897"></path><path d="M97.103 282.483h52.966V141.241H97.103zm52.966 0h52.965V88.276h-52.965zm52.965 0H256V167.724h-52.966zm52.966 0h52.966V114.759H256zm52.966 0h52.965V52.966h-52.965z"></path><path d="M361.931 282.483h52.966V88.276h-52.966z"></path><path d="M450.207 291.31H61.793c-4.873 0-8.828-3.955-8.828-8.828s3.955-8.828 8.828-8.828h388.414c4.873 0 8.828 3.955 8.828 8.828s-3.955 8.828-8.828 8.828"></path></svg><svg viewBox="0 0 129 129" width="129" height="129" id="arrow-down" y="512"><path d="M121.3 34.6c-1.6-1.6-4.2-1.6-5.8 0l-51 51.1-51.1-51.1c-1.6-1.6-4.2-1.6-5.8 0-1.6 1.6-1.6 4.2 0 5.8l53.9 53.9c.8.8 1.8 1.2 2.9 1.2 1 0 2.1-.4 2.9-1.2l53.9-53.9c1.7-1.6 1.7-4.2.1-5.8z"></path></svg><svg viewBox="0 0 477.175 477.175" width="477.175" height="477.175" id="arrow-left" y="641"><path d="M145.188 238.575l215.5-215.5c5.3-5.3 5.3-13.8 0-19.1s-13.8-5.3-19.1 0l-225.1 225.1c-5.3 5.3-5.3 13.8 0 19.1l225.1 225c2.6 2.6 6.1 4 9.5 4s6.9-1.3 9.5-4c5.3-5.3 5.3-13.8 0-19.1l-215.4-215.5z"></path></svg><svg viewBox="0 0 477.175 477.175" width="477.175" height="477.175" id="arrow-right" y="1119"><path d="M360.731 229.075l-225.1-225.1c-5.3-5.3-13.8-5.3-19.1 0s-5.3 13.8 0 19.1l215.5 215.5-215.5 215.5c-5.3 5.3-5.3 13.8 0 19.1 2.6 2.6 6.1 4 9.5 4 3.4 0 6.9-1.3 9.5-4l225.1-225.1c5.3-5.2 5.3-13.8.1-19z"></path></svg><svg width="64" height="64" viewBox="0 0 64 64" id="arrow-up" y="1597"><path d="M3.352 48.296l28.56-28.328 28.58 28.347c.397.394.917.59 1.436.59.52 0 1.04-.196 1.436-.59a2.003 2.003 0 0 0 0-2.849l-29.98-29.735c-.2-.2-.494-.375-.757-.475a2.052 2.052 0 0 0-2.166.456L.479 45.447a2.003 2.003 0 0 0 0 2.849 2.045 2.045 0 0 0 2.873 0z"></path></svg><svg viewBox="0 0 512 512" width="512" height="512" id="briefcase" y="1661"><path d="M52.966 503.172h406.069c29.255 0 52.966-23.711 52.966-52.966H0c0 29.256 23.711 52.966 52.966 52.966m26.482-256h52.966v-70.62H79.448zm300.138 0h52.966v-70.62h-52.966z"></path><path d="M459.034 97.103H52.966C23.711 97.103 0 120.814 0 150.069v17.655l79.448 32.874v-24.046h52.966v45.965L256 273.655l123.586-51.138v-45.965h52.966v24.046L512 167.724v-17.655c0-29.255-23.711-52.966-52.966-52.966"></path><path d="M512 450.207V167.724l-79.448 32.874v46.574h-52.966v-24.655L256 273.655l-123.586-51.138v24.655H79.448v-46.574L0 167.724v282.483zM132.414 97.103h52.965V70.621h-52.965zm194.207 0h52.965V70.621h-52.965zM308.966 8.828H203.034c-34.074 0-61.793 27.727-61.793 61.793h35.31c0-14.601 11.882-26.483 26.483-26.483h105.931c14.601 0 26.483 11.882 26.483 26.483h35.31c.001-34.066-27.718-61.793-61.792-61.793"></path></svg><svg viewBox="0 0 512 512" width="512" height="512" id="business-presentation" y="2173"><path d="M105.931 392.828h388.414c9.751 0 17.655-7.904 17.655-17.655V92.69c0-9.751-7.904-17.655-17.655-17.655H105.931c-9.751 0-17.655 7.904-17.655 17.655v282.483c0 9.749 7.904 17.655 17.655 17.655z"></path><path d="M317.793 348.69h-35.31a8.829 8.829 0 0 1-8.828-8.828V128a8.829 8.829 0 0 1 8.828-8.828h35.31a8.829 8.829 0 0 1 8.828 8.828v211.862a8.829 8.829 0 0 1-8.828 8.828z"></path><path d="M317.793 348.69h-35.31a8.829 8.829 0 0 1-8.828-8.828v-88.276a8.829 8.829 0 0 1 8.828-8.828h35.31a8.829 8.829 0 0 1 8.828 8.828v88.276a8.829 8.829 0 0 1-8.828 8.828zm70.621 0h-35.31a8.829 8.829 0 0 1-8.828-8.828v-88.276a8.829 8.829 0 0 1 8.828-8.828h35.31a8.829 8.829 0 0 1 8.828 8.828v88.276a8.83 8.83 0 0 1-8.828 8.828z"></path><path d="M388.414 348.69h-35.31a8.829 8.829 0 0 1-8.828-8.828v-17.655a8.829 8.829 0 0 1 8.828-8.828h35.31a8.829 8.829 0 0 1 8.828 8.828v17.655a8.83 8.83 0 0 1-8.828 8.828zm-211.862 0h-35.31a8.829 8.829 0 0 1-8.828-8.828v-88.276a8.829 8.829 0 0 1 8.828-8.828h35.31a8.829 8.829 0 0 1 8.828 8.828v88.276a8.83 8.83 0 0 1-8.828 8.828zm282.482 0h-35.31a8.829 8.829 0 0 1-8.828-8.828V180.966a8.829 8.829 0 0 1 8.828-8.828h35.31a8.829 8.829 0 0 1 8.828 8.828v158.897a8.828 8.828 0 0 1-8.828 8.827z"></path><path d="M459.034 348.69h-35.31a8.829 8.829 0 0 1-8.828-8.828v-52.966a8.829 8.829 0 0 1 8.828-8.828h35.31a8.829 8.829 0 0 1 8.828 8.828v52.966a8.828 8.828 0 0 1-8.828 8.828zm-211.862 0h-35.31a8.829 8.829 0 0 1-8.828-8.828V216.276a8.829 8.829 0 0 1 8.828-8.828h35.31a8.829 8.829 0 0 1 8.828 8.828v123.586a8.829 8.829 0 0 1-8.828 8.828z"></path><path d="M247.172 348.69h-35.31a8.829 8.829 0 0 1-8.828-8.828v-35.31a8.829 8.829 0 0 1 8.828-8.828h35.31a8.829 8.829 0 0 1 8.828 8.828v35.31a8.829 8.829 0 0 1-8.828 8.828zm-70.62 0h-35.31a8.829 8.829 0 0 1-8.828-8.828v-17.655a8.829 8.829 0 0 1 8.828-8.828h35.31a8.829 8.829 0 0 1 8.828 8.828v17.655a8.83 8.83 0 0 1-8.828 8.828z"></path><path d="M485.517 357.517H114.759a8.829 8.829 0 0 1 0-17.656h370.759a8.829 8.829 0 0 1 8.828 8.828 8.83 8.83 0 0 1-8.829 8.828z"></path><path d="M142.6 367.703v-28.52H69.262v28.52l36.669 32.594z"></path><path d="M199.297 381.044l-50.415-11.862a8.062 8.062 0 0 1-2.116-.852l-40.834 23.819-39.242-24.972a8.104 8.104 0 0 1-3.709 2.004l-50.415 11.862A16.298 16.298 0 0 0 0 396.907v31.91a8.148 8.148 0 0 0 8.149 8.149h195.565a8.15 8.15 0 0 0 8.149-8.149v-31.91a16.298 16.298 0 0 0-12.566-15.863z"></path><path d="M69.262 339.183v30.091c46.193 16.642 73.337-25.01 73.337-25.01v-5.081H69.262z"></path><path d="M52.966 245.474l3.551 78.11a24.449 24.449 0 0 0 9.753 18.446l16.846 12.634a24.444 24.444 0 0 0 14.667 4.889h16.297a24.448 24.448 0 0 0 14.667-4.889l16.846-12.634a24.445 24.445 0 0 0 9.753-18.446l3.55-78.11H52.966z"></path><path d="M93.708 261.772c16.297 0 40.743-4.074 46.541-16.297H52.966l3.55 78.11a24.449 24.449 0 0 0 9.753 18.446l16.846 12.634a24.444 24.444 0 0 0 14.667 4.889h8.149c-8.149 0-24.446-16.297-24.446-36.669v-48.892c0-4.073 4.074-12.221 12.223-12.221zm88.244 148.752l26.401-23.716a16.272 16.272 0 0 1 3.51 10.1v31.91a8.15 8.15 0 0 1-8.149 8.149h-28.52V425.68a20.366 20.366 0 0 1 6.758-15.156zm-152.042 0l-26.4-23.716a16.26 16.26 0 0 0-3.51 10.1v31.91a8.148 8.148 0 0 0 8.149 8.149h28.52V425.68a20.37 20.37 0 0 0-6.759-15.156zm86.207 26.442H95.745l2.547-36.669h15.278z"></path><path d="M116.117 392.149H95.745v2.354c0 5.451 4.418 9.869 9.869 9.869h.632c5.451 0 9.869-4.418 9.869-9.869v-2.354h.002z"></path><path d="M68.691 358.632l37.24 33.517s-10.43 5.265-23.3 15.876c-2.655 2.189-6.671 1.302-8.095-1.831L57.04 367.702l5.535-8.302a4.075 4.075 0 0 1 6.116-.768z"></path><path d="M143.171 358.632l-37.24 33.517s10.43 5.265 23.3 15.876c2.655 2.189 6.671 1.302 8.095-1.831l17.496-38.492-5.535-8.302a4.074 4.074 0 0 0-6.116-.768zm-12.539-140.149l3.82 26.993c17.436 3.487 19.948 30.849 20.31 38.665a8.045 8.045 0 0 0 1.288 3.981l6.653 10.319s-2.278-17.062 8.149-28.52c-.002-.001 3.578-67.735-40.22-51.438z"></path><path d="M166.79 296.696l-4.601 18.404a4.898 4.898 0 0 1-9.614-.58l-2.353-18.824c-.629-5.034 3.296-9.48 8.369-9.48h.017c5.486.002 9.512 5.157 8.182 10.48zM56.87 211.183l6.027 4.116C35.65 235.416 40.743 269.92 40.743 269.92c8.149 8.149 8.149 28.52 8.149 28.52l8.149-8.149s-3.145-23.539 12.223-32.594c14.26-8.403 26.738-4.074 39.469-4.074 34.122 0 43.671-12.86 42.016-28.52-.856-8.104-13.246-24.982-44.817-24.446-12.742.217-36.67 4.075-49.062 10.526z"></path><path d="M54.494 250.058s-4.329-17.062 8.403-34.759C35.65 235.416 40.743 269.92 40.743 269.92c8.149 8.149 8.149 28.52 8.149 28.52l8.149-8.149s-3.145-23.539 12.223-32.594c14.26-8.403 26.738-4.074 39.469-4.074 5.549 0 10.386-.372 14.692-1.009-26.28.882-41.77-19.023-68.931-2.556z"></path><path d="M45.073 296.696l4.601 18.404a4.898 4.898 0 0 0 9.614-.58l2.353-18.824c.629-5.034-3.296-9.48-8.369-9.48h-.017c-5.487.002-9.513 5.157-8.182 10.48zm109.75 132.121h-20.372a8.15 8.15 0 0 0-8.149 8.149h36.669a8.15 8.15 0 0 0-8.148-8.149z"></path></svg><svg viewBox="0 0 475.2 475.2" width="475.2" height="475.2" id="cancel" y="2685"><path d="M405.6 69.6C360.7 24.7 301.1 0 237.6 0s-123.1 24.7-168 69.6S0 174.1 0 237.6s24.7 123.1 69.6 168 104.5 69.6 168 69.6 123.1-24.7 168-69.6 69.6-104.5 69.6-168-24.7-123.1-69.6-168zm-19.1 316.9c-39.8 39.8-92.7 61.7-148.9 61.7s-109.1-21.9-148.9-61.7c-82.1-82.1-82.1-215.7 0-297.8C128.5 48.9 181.4 27 237.6 27s109.1 21.9 148.9 61.7c82.1 82.1 82.1 215.7 0 297.8z"></path><path d="M342.3 132.9c-5.3-5.3-13.8-5.3-19.1 0l-85.6 85.6-85.6-85.6c-5.3-5.3-13.8-5.3-19.1 0-5.3 5.3-5.3 13.8 0 19.1l85.6 85.6-85.6 85.6c-5.3 5.3-5.3 13.8 0 19.1 2.6 2.6 6.1 4 9.5 4s6.9-1.3 9.5-4l85.6-85.6 85.6 85.6c2.6 2.6 6.1 4 9.5 4 3.5 0 6.9-1.3 9.5-4 5.3-5.3 5.3-13.8 0-19.1l-85.4-85.6 85.6-85.6c5.3-5.3 5.3-13.8 0-19.1z"></path></svg><svg viewBox="0 0 26 26" width="26" height="26" id="checked" y="3161"><path d="M.3 14c-.2-.2-.3-.5-.3-.7s.1-.5.3-.7l1.4-1.4c.4-.4 1-.4 1.4 0l.1.1 5.5 5.9c.2.2.5.2.7 0L22.8 3.3h.1c.4-.4 1-.4 1.4 0l1.4 1.4c.4.4.4 1 0 1.4l-16 16.6c-.2.2-.4.3-.7.3-.3 0-.5-.1-.7-.3L.5 14.3.3 14z"></path></svg><svg width="54.422" height="54.422" viewBox="0 0 139 139" id="close" y="3187"><path class="fil0" d="M7 0l63 63 62-63 7 7-63 63 63 62-7 7-62-63-63 63-7-7 63-62L0 7z"></path></svg><svg viewBox="0 0 512 512" width="512" height="512" id="collaboration" y="3242"><path d="M269.288 312.21v-83.925h-17.716v83.925l-86.352 59.365 10.035 14.603 85.175-58.561 85.175 58.561 10.035-14.603zm27.938-144.571V139.02h-73.593v28.619l36.797 32.708z"></path><path d="M354.121 181.026l-50.591-11.903c-.764-.179-1.467-.485-2.125-.855l-40.977 23.903-39.379-25.059a8.136 8.136 0 0 1-3.722 2.011l-50.591 11.903a16.354 16.354 0 0 0-12.609 15.92v32.021a8.177 8.177 0 0 0 8.177 8.177h196.247a8.177 8.177 0 0 0 8.177-8.177v-32.021a16.352 16.352 0 0 0-12.607-15.92z"></path><path d="M223.633 139.02v30.196c46.354 16.7 73.593-25.097 73.593-25.097v-5.099h-73.593z"></path><path d="M207.28 44.985l3.563 78.382a24.533 24.533 0 0 0 9.787 18.511l16.905 12.679a24.528 24.528 0 0 0 14.718 4.906h16.354a24.532 24.532 0 0 0 14.718-4.906l16.905-12.679a24.531 24.531 0 0 0 9.787-18.511l3.563-78.382h-106.3z"></path><path d="M248.164 61.339c16.354 0 40.885-4.088 46.704-16.354H207.28l3.562 78.382a24.533 24.533 0 0 0 9.787 18.511l16.905 12.679a24.528 24.528 0 0 0 14.718 4.906h8.177c-8.177 0-24.531-16.354-24.531-36.797V73.604c.001-4.088 4.089-12.265 12.266-12.265zm88.551 149.27l26.493-23.799a16.325 16.325 0 0 1 3.522 10.135v32.021a8.177 8.177 0 0 1-8.177 8.177h-28.619v-11.327a20.446 20.446 0 0 1 6.781-15.207zm-152.571 0l-26.493-23.799a16.325 16.325 0 0 0-3.522 10.135v32.021a8.177 8.177 0 0 0 8.177 8.177h28.619v-11.327a20.439 20.439 0 0 0-6.781-15.207zm86.507 26.534h-20.443l2.556-36.796h15.332z"></path><path d="M270.651 192.17h-20.443v2.362c0 5.47 4.434 9.904 9.904 9.904h.634c5.47 0 9.904-4.434 9.904-9.904v-2.362h.001z"></path><path d="M223.06 158.536l37.37 33.633s-10.466 5.283-23.382 15.932c-2.664 2.197-6.695 1.307-8.123-1.837l-17.557-38.626 5.554-8.331a4.09 4.09 0 0 1 6.138-.771zm74.74 0l-37.37 33.633s10.466 5.283 23.382 15.932c2.664 2.197 6.695 1.307 8.123-1.837l17.557-38.626-5.554-8.331a4.09 4.09 0 0 0-6.138-.771zM285.216 17.899l3.833 27.087c17.496 3.499 20.018 30.957 20.381 38.8a8.066 8.066 0 0 0 1.292 3.995l6.676 10.355s-2.285-17.121 8.177-28.619c0-.001 3.592-67.972-40.359-51.618z"></path><path d="M321.501 96.386l-4.617 18.469a4.916 4.916 0 0 1-9.647-.582l-2.361-18.889c-.631-5.051 3.307-9.513 8.398-9.513h.017c5.504-.001 9.544 5.173 8.21 10.515zM211.197 10.574l6.048 4.131c-27.341 20.187-22.231 54.811-22.231 54.811 8.177 8.177 8.177 28.619 8.177 28.619l8.177-8.177s-3.156-23.621 12.266-32.707c14.31-8.432 26.831-4.088 39.607-4.088 34.241 0 43.823-12.904 42.162-28.619-.859-8.132-13.292-25.069-44.973-24.531-12.786.217-36.797 4.088-49.233 10.561z"></path><path d="M208.813 49.585s-4.344-17.121 8.432-34.88c-27.341 20.187-22.231 54.811-22.231 54.811 8.177 8.177 8.177 28.619 8.177 28.619l8.177-8.177s-3.156-23.621 12.266-32.707c14.31-8.432 26.831-4.088 39.607-4.088 5.569 0 10.422-.373 14.744-1.012-26.371.883-41.916-19.091-69.172-2.566z"></path><path d="M199.359 96.386l4.617 18.469a4.916 4.916 0 0 0 9.647-.582l2.361-18.889c.631-5.051-3.307-9.513-8.398-9.513h-.017c-5.505-.001-9.545 5.173-8.21 10.515zm110.133 132.581h-20.443a8.177 8.177 0 0 0-8.177 8.177h36.797a8.178 8.178 0 0 0-8.177-8.177zM164.351 442.249v-28.62H90.758v28.62l36.796 32.707z"></path><path d="M221.246 455.636l-50.591-11.903a8.088 8.088 0 0 1-2.124-.855l-40.977 23.903-39.379-25.059a8.136 8.136 0 0 1-3.722 2.011l-50.591 11.903a16.354 16.354 0 0 0-12.609 15.92v32.021a8.177 8.177 0 0 0 8.177 8.177h196.247a8.177 8.177 0 0 0 8.177-8.177v-32.021a16.352 16.352 0 0 0-12.608-15.92z"></path><path d="M90.758 413.629v30.196c46.354 16.7 73.593-25.097 73.593-25.097v-5.099H90.758z"></path><path d="M74.404 319.595l3.563 78.382a24.533 24.533 0 0 0 9.787 18.511l16.905 12.679a24.528 24.528 0 0 0 14.718 4.906h16.354a24.532 24.532 0 0 0 14.718-4.906l16.905-12.679a24.531 24.531 0 0 0 9.787-18.511l3.563-78.382h-106.3z"></path><path d="M115.289 335.948c16.354 0 40.885-4.088 46.703-16.354H74.404l3.562 78.382a24.533 24.533 0 0 0 9.787 18.511l16.905 12.679a24.528 24.528 0 0 0 14.718 4.906h8.177c-8.177 0-24.531-16.354-24.531-36.797v-49.062c.001-4.089 4.09-12.265 12.267-12.265zm88.55 149.27l26.493-23.799a16.325 16.325 0 0 1 3.522 10.135v32.021a8.177 8.177 0 0 1-8.177 8.177h-28.619v-11.327a20.447 20.447 0 0 1 6.781-15.207zm-152.57 0l-26.493-23.799a16.325 16.325 0 0 0-3.522 10.135v32.021a8.177 8.177 0 0 0 8.177 8.177H58.05v-11.327a20.44 20.44 0 0 0-6.781-15.207zm86.507 26.534h-20.443l2.556-36.796h15.331z"></path><path d="M137.776 466.78h-20.443v2.362c0 5.47 4.434 9.904 9.904 9.904h.634c5.47 0 9.904-4.434 9.904-9.904v-2.362h.001z"></path><path d="M90.184 433.145l37.37 33.633s-10.466 5.283-23.382 15.932c-2.664 2.197-6.695 1.307-8.123-1.837l-17.557-38.626 5.554-8.331a4.09 4.09 0 0 1 6.138-.771zm74.741 0l-37.37 33.633s10.466 5.283 23.382 15.932c2.664 2.197 6.695 1.307 8.123-1.837l17.557-38.626-5.554-8.331a4.09 4.09 0 0 0-6.138-.771zm-12.584-140.637l3.833 27.087c17.496 3.499 20.018 30.957 20.381 38.8a8.066 8.066 0 0 0 1.292 3.995l6.676 10.355s-2.285-17.121 8.177-28.619c0-.002 3.592-67.972-40.359-51.618z"></path><path d="M188.625 370.995l-4.617 18.469a4.916 4.916 0 0 1-9.647-.582L172 369.992c-.631-5.051 3.307-9.513 8.398-9.513h.017c5.505 0 9.546 5.175 8.21 10.516zM78.322 285.183l6.048 4.131c-27.341 20.187-22.231 54.811-22.231 54.811 8.177 8.177 8.177 28.619 8.177 28.619l8.177-8.177s-3.156-23.621 12.266-32.707c14.31-8.432 26.831-4.088 39.607-4.088 34.241 0 43.823-12.904 42.162-28.619-.859-8.132-13.292-25.069-44.973-24.531-12.786.217-36.797 4.088-49.233 10.561z"></path><path d="M75.938 324.193s-4.344-17.121 8.432-34.88c-27.341 20.187-22.231 54.811-22.231 54.811 8.177 8.177 8.177 28.619 8.177 28.619l8.177-8.177s-3.156-23.621 12.266-32.707c14.31-8.432 26.831-4.088 39.607-4.088 5.569 0 10.422-.373 14.744-1.012-26.372.884-41.916-19.09-69.172-2.566z"></path><path d="M66.484 370.995l4.617 18.469a4.916 4.916 0 0 0 9.647-.582l2.361-18.889c.631-5.051-3.307-9.513-8.398-9.513h-.017c-5.505-.001-9.546 5.174-8.21 10.515zm110.133 132.58h-20.443a8.177 8.177 0 0 0-8.177 8.177h36.797a8.179 8.179 0 0 0-8.177-8.177zm225.547-226.062c-82.478 0-73.333 100.299-72.956 172.983.014 2.745 1.452 5.22 3.804 6.637 9.14 5.51 34.24 18.391 69.153 18.391s60.013-12.881 69.153-18.391c2.351-1.417 3.789-3.892 3.804-6.637.375-72.683 9.52-172.983-72.958-172.983z"></path><path d="M396.85 277.72c-76.708 4.301-68.01 101.71-67.642 172.776.014 2.745 1.452 5.22 3.804 6.637 9.14 5.51 34.24 18.391 69.153 18.391l20.844-145.903"></path><path d="M402.164 277.513c-46.897 0-50.154 56.667-50.154 56.667 27.031-4.56 43.641 6.839 70.998-4.56l-20.844 145.903c34.914 0 60.013-12.881 69.153-18.391 2.351-1.417 3.789-3.892 3.804-6.637.376-72.682 9.521-172.982-72.957-172.982z"></path><path d="M475.12 450.496c.323-62.456 7.066-145.243-43.359-167.321-.879 4.569-2.473 17.324 1.668 25.603 10.422 20.844 20.844 20.844 31.264 36.475 10.422 57.319-19.913 118.156-29.988 126.439 17.851-4.245 30.647-10.963 36.612-14.559 2.35-1.418 3.789-3.892 3.803-6.637z"></path><path d="M481.127 466.305l-46.496-19.373a10.421 10.421 0 0 1-6.413-9.62V424.72H376.11v12.592c0 4.208-2.53 8.002-6.413 9.62l-46.496 19.373a15.633 15.633 0 0 0-9.62 14.43v20.844c0 5.756 4.666 10.422 10.422 10.422h156.323c5.756 0 10.422-4.666 10.422-10.422v-20.844a15.633 15.633 0 0 0-9.621-14.43z"></path><path d="M481.127 466.305l-44.956-18.732-34.007 14.677-34.007-14.677-44.957 18.732a15.633 15.633 0 0 0-9.62 14.43v20.844c0 5.756 4.666 10.422 10.422 10.422h156.323c5.756 0 10.422-4.666 10.422-10.422v-20.844a15.63 15.63 0 0 0-9.62-14.43z"></path><path d="M428.217 424.718h-52.108v12.592c0 4.208-2.53 8.002-6.413 9.62l-7.263 3.026c55.574 14.17 65.784-25.238 65.784-25.238zm-89.239 61.744l-20.916-16.637c-2.803 2.866-4.482 6.741-4.482 10.909v20.844c0 5.756 4.666 10.422 10.422 10.422h20.844v-13.33a15.638 15.638 0 0 0-5.868-12.208zm151.769 15.115v-20.844c0-4.136-1.652-7.985-4.415-10.844l-20.983 16.572a15.631 15.631 0 0 0-5.866 12.207v13.33h20.844c5.754.001 10.42-4.665 10.42-10.421zm-87.802 0h-1.563a4.43 4.43 0 0 1-4.429-4.429v-34.886h10.422v34.886a4.43 4.43 0 0 1-4.43 4.429z"></path><path d="M402.164 462.25l-29.824-22.367a4.168 4.168 0 0 0-5.969 1.022l-5.893 8.84 18.285 25.598a4.17 4.17 0 0 0 5.996.833l17.405-13.926zm0 0l29.824-22.367a4.168 4.168 0 0 1 5.969 1.022l5.893 8.84-18.285 25.598a4.17 4.17 0 0 1-5.996.833l-17.405-13.926zm26.053-137.84c-26.054 26.054-77.185 5.211-77.185 46.897l3.236 30.706a20.847 20.847 0 0 0 10.634 16.334l29.669 16.482a15.631 15.631 0 0 0 15.183 0l29.669-16.482a20.84 20.84 0 0 0 10.634-16.334l3.735-36.469c.266-2.592.322-5.2.235-7.801-1.948-13.264-20.599-22.911-25.81-33.333z"></path><path d="M351.032 371.307l3.236 30.706a20.847 20.847 0 0 0 10.634 16.334l29.669 16.482c3.276 1.82 7.034 2.291 10.61 1.586 0 0-14.958-4.533-23.861-28.632-2.727-7.382-6.513-46.463-3.257-51.24 6.437-9.441 42.337-10.422 52.945-27.936a29.06 29.06 0 0 1-1.449-1.953c-.035-.052-.079-.105-.114-.158a19.892 19.892 0 0 1-1.228-2.085c-26.053 26.053-77.185 5.21-77.185 46.896zm89.171 130.27h-13.548a8.858 8.858 0 0 0-8.858 8.858v1.563h31.264v-1.563a8.859 8.859 0 0 0-8.858-8.858z"></path></svg><svg viewBox="0 0 512.001 512.001" width="512.001" height="512.001" id="dart-board" y="3754"><path d="M388.414 123.587l3.836-42.186a17.654 17.654 0 0 1 5.099-10.886l52.858-52.86a8.828 8.828 0 0 1 12.484 0l31.654 31.654a8.828 8.828 0 0 1 0 12.484l-52.86 52.86a17.656 17.656 0 0 1-10.886 5.099l-42.185 3.835z"></path><circle cx="211.862" cy="300.139" r="211.862"></circle><circle cx="211.862" cy="300.139" r="158.897"></circle><circle cx="211.862" cy="300.139" r="105.931"></circle><circle cx="211.862" cy="300.139" r="52.966"></circle><path d="M211.862 308.966a8.796 8.796 0 0 1-6.241-2.586 8.825 8.825 0 0 1 0-12.483l291.31-291.31a8.825 8.825 0 0 1 12.483 0 8.824 8.824 0 0 1 0 12.482l-291.31 291.31a8.793 8.793 0 0 1-6.242 2.587z"></path><path d="M509.414 2.587a8.825 8.825 0 0 0-12.483 0l-15.069 15.069 12.483 12.482 15.069-15.069a8.824 8.824 0 0 0 0-12.482z"></path></svg><svg viewBox="0 0 491.1 491.1" width="491.1" height="491.1" id="desk" y="4267"><path d="M340.1 265.95l-12.2-205.1c-1-16.9-15-30.1-32-30.1h-54.7 8.5H195c-16.9 0-31 13.2-32 30.1l-12.2 205.1" fill="#5fbcf9"></path><path d="M96.5 256.95H9.1c-5 0-9.1 4.1-9.1 9.1s4.1 9.1 9.1 9.1h22v37.6c0 5 4.1 9.1 9.1 9.1h22.5v138.7c0 5 4.1 9.1 9.1 9.1h31.6c5 0 9.1-4.1 9.1-9.1s-4.1-9.1-9.1-9.1H80.8v-129.8h328.6v129.6h-22.5c-5 0-9.1 4.1-9.1 9.1s4.1 9.1 9.1 9.1h31.6c5 0 9.1-4.1 9.1-9.1v-138.7h23.3c5 0 9.1-4.1 9.1-9.1v-37.6h22c5 0 9.1-4.1 9.1-9.1s-4.1-9.1-9.1-9.1h-87.5l-10.7-59.2c-2.4-13.3-14-23-27.5-23h-12.5L337 60.05c-1.3-21.7-19.3-38.6-41-38.6H195.1c-21.7 0-39.7 17-41 38.6l-6.8 114.5h-12.5c-13.5 0-25.1 9.7-27.5 23l-10.8 59.4zm345.2 46.6H49.3v-28.5h392.3v28.5h.1zm-85.5-110.7c4.8 0 8.8 3.4 9.7 8.1l10.1 55.9h-27.4l-3.8-64h11.4zm-184-131.5c.7-12.1 10.8-21.6 22.9-21.6h100.8c12.1 0 22.2 9.5 22.9 21.6l11.7 195.6h-170l11.7-195.6zm-47.1 139.6c.8-4.7 4.9-8.1 9.7-8.1h11.4l-3.8 64H115l10.1-55.9z"></path><path d="M202.1 129.65h84.6c5 0 9.1-4.1 9.1-9.1s-4.1-9.1-9.1-9.1h-84.6c-5 0-9.1 4.1-9.1 9.1s4.1 9.1 9.1 9.1zm138 231.9c5 0 9.1-4.1 9.1-9.1s-4.1-9.1-9.1-9.1H150.9c-5 0-9.1 4.1-9.1 9.1s4.1 9.1 9.1 9.1h85.6v39.8h-41.6c-5 0-9.1 4.1-9.1 9.1v50c0 5 4.1 9.1 9.1 9.1s9.1-4.1 9.1-9.1v-40.9h32.6v40.9c0 5 4.1 9.1 9.1 9.1s9.1-4.1 9.1-9.1v-40.9h32.6v40.9c0 5 4.1 9.1 9.1 9.1s9.1-4.1 9.1-9.1v-50c0-5-4.1-9.1-9.1-9.1h-41.6v-39.8h85.2z"></path></svg><svg viewBox="0 0 512 512" width="512" height="512" id="diploma" y="4759"><path d="M317.793 105.959c-2.26 0-4.52-.865-6.241-2.586L256 47.82l-55.552 55.552a8.817 8.817 0 0 1-12.482 0 8.817 8.817 0 0 1 0-12.482l61.846-61.846c3.443-3.452 9.031-3.452 12.482 0 .274.274.521.565.759.865l60.981 60.981a8.817 8.817 0 0 1 0 12.482 8.8 8.8 0 0 1-6.241 2.587"></path><path d="M0 485.545h512V97.131H0z"></path><path d="M0 109.614l29.069 29.069c1.721 1.721 3.981 2.586 6.241 2.586s4.52-.865 6.241-2.586a8.817 8.817 0 0 0 0-12.482L12.482 97.132H0v12.482zm512-12.483h-12.482L470.449 126.2a8.817 8.817 0 0 0 0 12.482 8.803 8.803 0 0 0 6.241 2.586c2.26 0 4.52-.865 6.241-2.586L512 109.613V97.131zm0 375.931l-29.069-29.069c-3.452-3.452-9.031-3.452-12.482 0s-3.452 9.031 0 12.482l29.069 29.069H512v-12.482zM29.069 443.993L0 473.063v12.482h12.482l29.069-29.069a8.817 8.817 0 0 0 0-12.482 8.818 8.818 0 0 0-12.482-.001"></path><path d="M35.31 450.234h441.38V132.441H35.31z"></path><path d="M317.793 229.545c0-34.127-27.666-61.793-61.793-61.793s-61.793 27.666-61.793 61.793 27.666 61.793 61.793 61.793 61.793-27.666 61.793-61.793"></path><path d="M229.517 238.372a8.82 8.82 0 0 1-8.828-8.828c0-19.474 15.837-35.31 35.31-35.31 4.882 0 8.828 3.946 8.828 8.828s-3.946 8.828-8.828 8.828c-9.737 0-17.655 7.918-17.655 17.655a8.818 8.818 0 0 1-8.827 8.827M256 264.855c-4.882 0-8.828-3.946-8.828-8.828s3.946-8.828 8.828-8.828c9.737 0 17.655-7.918 17.655-17.655 0-4.882 3.946-8.828 8.828-8.828s8.828 3.946 8.828 8.828c-.001 19.474-15.837 35.311-35.311 35.311m8.828 97.104h-88.276a8.82 8.82 0 0 1-8.828-8.828 8.82 8.82 0 0 1 8.828-8.828h88.276a8.82 8.82 0 0 1 8.828 8.828 8.821 8.821 0 0 1-8.828 8.828m-123.587 0h-17.655a8.82 8.82 0 0 1-8.828-8.828 8.82 8.82 0 0 1 8.828-8.828h17.655a8.82 8.82 0 0 1 8.828 8.828 8.82 8.82 0 0 1-8.828 8.828m264.828 35.31h-97.103a8.82 8.82 0 0 1-8.828-8.828 8.82 8.82 0 0 1 8.828-8.828h97.103a8.82 8.82 0 0 1 8.828 8.828 8.82 8.82 0 0 1-8.828 8.828m-8.828-26.483c-2.26 0-4.52-.865-6.241-2.586l-13.753-13.753c-8.757 2.145-21.751 1.819-33.863-7.768l-20.692 13.798c-4.078 2.692-9.543 1.607-12.244-2.445a8.822 8.822 0 0 1 2.445-12.244l26.483-17.655a8.825 8.825 0 0 1 11.379 1.351c12.156 13.162 24.708 7 24.841 6.947 3.39-1.73 7.512-1.077 10.231 1.633l17.655 17.655a8.817 8.817 0 0 1 0 12.482 8.807 8.807 0 0 1-6.241 2.585m-203.034 26.483h-70.621a8.82 8.82 0 0 1-8.828-8.828 8.82 8.82 0 0 1 8.828-8.828h70.621a8.82 8.82 0 0 1 8.828 8.828 8.82 8.82 0 0 1-8.828 8.828m70.621 0h-35.31a8.82 8.82 0 0 1-8.828-8.828 8.82 8.82 0 0 1 8.828-8.828h35.31a8.82 8.82 0 0 1 8.828 8.828 8.821 8.821 0 0 1-8.828 8.828M416.6 195.448l3.037-1.209H306.67c6.991 10.01 11.123 22.166 11.123 35.31 0 13.135-4.131 25.291-11.123 35.31h112.967l-3.037-1.218c-30.782-12.314-30.782-55.878 0-68.193M95.97 263.412l-3.602 1.439h112.958c-6.991-10.01-11.123-22.166-11.123-35.31 0-13.135 4.131-25.291 11.123-35.31H92.368l3.602 1.448c30.57 12.234 30.57 55.498 0 67.733"></path></svg><svg viewBox="0 0 512 512" width="512" height="512" id="flats" y="5271"><path d="M353.103 44.138a8.829 8.829 0 0 0-8.828 8.828v97.103h17.655V52.966a8.827 8.827 0 0 0-8.827-8.828zm35.311 35.31a8.829 8.829 0 0 0-8.828 8.828v97.103h17.655V88.276a8.828 8.828 0 0 0-8.827-8.828z"></path><path d="M326.621 132.414H441.38a8.829 8.829 0 0 1 8.828 8.828v361.931H326.621V132.414z"></path><path d="M326.621 467.862h123.586v35.31H326.621zm-8.828-35.31h132.414v17.655H317.793z"></path><path d="M414.897 432.552h17.655v17.655h-17.655zm-70.621 0h17.655v17.655h-17.655zm35.31 0h17.655v17.655h-17.655zm-61.793-35.311h132.414v17.655H317.793z"></path><path d="M414.897 397.241h17.655v17.655h-17.655zm-70.621 0h17.655v17.655h-17.655zm35.31 0h17.655v17.655h-17.655zm-61.793-35.31h132.414v17.655H317.793z"></path><path d="M414.897 361.931h17.655v17.655h-17.655zm-70.621 0h17.655v17.655h-17.655zm35.31 0h17.655v17.655h-17.655zm-61.793-35.31h132.414v17.655H317.793z"></path><path d="M414.897 326.621h17.655v17.655h-17.655zm-70.621 0h17.655v17.655h-17.655zm35.31 0h17.655v17.655h-17.655zm-61.793-35.311h132.414v17.655H317.793z"></path><path d="M414.897 291.31h17.655v17.655h-17.655zm-70.621 0h17.655v17.655h-17.655zm35.31 0h17.655v17.655h-17.655zM317.793 256h132.414v17.655H317.793z"></path><path d="M414.897 256h17.655v17.655h-17.655zm-70.621 0h17.655v17.655h-17.655zm35.31 0h17.655v17.655h-17.655zm-61.793-35.31h132.414v17.655H317.793z"></path><path d="M414.897 220.69h17.655v17.655h-17.655zm-70.621 0h17.655v17.655h-17.655zm35.31 0h17.655v17.655h-17.655zm-61.793-35.311h132.414v17.655H317.793z"></path><path d="M414.897 185.379h17.655v17.655h-17.655zm-70.621 0h17.655v17.655h-17.655zm35.31 0h17.655v17.655h-17.655zm-61.793-35.31h132.414v17.655H317.793z"></path><path d="M414.897 150.069h17.655v17.655h-17.655zm-70.621 0h17.655v17.655h-17.655zm35.31 0h17.655v17.655h-17.655zm-52.965 353.103H61.793V8.828A8.829 8.829 0 0 1 70.621 0h247.172a8.829 8.829 0 0 1 8.828 8.828v494.344z"></path><path d="M88.276 414.897a8.829 8.829 0 0 1-8.828-8.828V52.966a8.829 8.829 0 0 1 17.656 0v353.103a8.83 8.83 0 0 1-8.828 8.828zm-26.483 17.655h264.828v70.621H61.793z"></path><path d="M97.103 494.345v-35.31a8.829 8.829 0 0 0-17.656 0v35.31h17.656zm26.483-79.448a8.829 8.829 0 0 1-8.828-8.828V52.966a8.829 8.829 0 0 1 17.656 0v353.103a8.829 8.829 0 0 1-8.828 8.828zm8.828 79.448v-35.31a8.829 8.829 0 0 0-17.656 0v35.31h17.656zm26.483-79.448a8.829 8.829 0 0 1-8.828-8.828V52.966a8.829 8.829 0 0 1 17.656 0v353.103a8.83 8.83 0 0 1-8.828 8.828zm8.827 79.448v-35.31a8.829 8.829 0 0 0-17.656 0v35.31h17.656zm26.483-79.448a8.829 8.829 0 0 1-8.828-8.828V52.966a8.829 8.829 0 0 1 17.656 0v353.103a8.83 8.83 0 0 1-8.828 8.828zm8.827 79.448v-35.31a8.829 8.829 0 0 0-17.656 0v35.31h17.656zm26.483-79.448a8.829 8.829 0 0 1-8.828-8.828V52.966a8.829 8.829 0 0 1 17.656 0v353.103a8.829 8.829 0 0 1-8.828 8.828zm8.828 79.448v-35.31a8.829 8.829 0 0 0-17.656 0v35.31h17.656zm26.483-79.448a8.829 8.829 0 0 1-8.828-8.828V52.966a8.829 8.829 0 0 1 17.656 0v353.103a8.83 8.83 0 0 1-8.828 8.828zm8.827 79.448v-35.31a8.829 8.829 0 0 0-17.655-.001v35.31h17.655zm26.483-79.448a8.829 8.829 0 0 1-8.828-8.828V52.966a8.829 8.829 0 0 1 17.656 0v353.103a8.829 8.829 0 0 1-8.828 8.828z"></path><path d="M308.966 494.345v-35.31a8.829 8.829 0 0 0-17.656 0v35.31h17.656zM79.448 379.586h17.655v17.655H79.448zm35.311 0h17.655v17.655h-17.655zm35.31 0h17.655v17.655h-17.655zm35.31 0h17.655v17.655h-17.655zm35.311 0h17.655v17.655H220.69zm35.31 0h17.655v17.655H256zm35.31 0h17.655v17.655H291.31zM79.448 326.621h17.655v17.655H79.448zm35.311 0h17.655v17.655h-17.655zm35.31 0h17.655v17.655h-17.655zm35.31 0h17.655v17.655h-17.655zm35.311 0h17.655v17.655H220.69zm35.31 0h17.655v17.655H256zm35.31 0h17.655v17.655H291.31zM79.448 273.655h17.655v17.655H79.448zm35.311 0h17.655v17.655h-17.655zm35.31 0h17.655v17.655h-17.655zm35.31 0h17.655v17.655h-17.655zm35.311 0h17.655v17.655H220.69zm35.31 0h17.655v17.655H256zm35.31 0h17.655v17.655H291.31zM79.448 220.69h17.655v17.655H79.448zm35.311 0h17.655v17.655h-17.655zm35.31 0h17.655v17.655h-17.655zm35.31 0h17.655v17.655h-17.655zm35.311 0h17.655v17.655H220.69zm35.31 0h17.655v17.655H256zm35.31 0h17.655v17.655H291.31zM79.448 167.724h17.655v17.655H79.448zm35.311 0h17.655v17.655h-17.655zm35.31 0h17.655v17.655h-17.655zm35.31 0h17.655v17.655h-17.655zm35.311 0h17.655v17.655H220.69zm35.31 0h17.655v17.655H256zm35.31 0h17.655v17.655H291.31zM79.448 114.759h17.655v17.655H79.448zm35.311 0h17.655v17.655h-17.655zm35.31 0h17.655v17.655h-17.655zm35.31 0h17.655v17.655h-17.655zm35.311 0h17.655v17.655H220.69zm35.31 0h17.655v17.655H256zm35.31 0h17.655v17.655H291.31zM79.448 61.793h17.655v17.655H79.448zm35.311 0h17.655v17.655h-17.655zm35.31 0h17.655v17.655h-17.655zm35.31 0h17.655v17.655h-17.655zm35.311 0h17.655v17.655H220.69zm35.31 0h17.655v17.655H256zm35.31 0h17.655v17.655H291.31z"></path><path d="M326.621 26.483H61.793V8.828A8.829 8.829 0 0 1 70.621 0h247.172a8.829 8.829 0 0 1 8.828 8.828v17.655zM459.034 512H52.966a8.829 8.829 0 0 1 0-17.656h406.069a8.829 8.829 0 0 1 8.828 8.828 8.83 8.83 0 0 1-8.829 8.828z"></path></svg><svg viewBox="0 0 59 59" width="59" height="59" id="garbage" y="5783"><path d="M29.5 51a1 1 0 0 0 1-1V17a1 1 0 1 0-2 0v33a1 1 0 0 0 1 1zm-10 0a1 1 0 0 0 1-1V17a1 1 0 1 0-2 0v33a1 1 0 0 0 1 1zm20 0a1 1 0 0 0 1-1V17a1 1 0 1 0-2 0v33a1 1 0 0 0 1 1z"></path><path d="M52.5 6H38.456c-.11-1.25-.495-3.358-1.813-4.711C35.809.434 34.751 0 33.499 0H23.5c-1.252 0-2.31.434-3.144 1.289C19.038 2.642 18.653 4.75 18.543 6H6.5a1 1 0 1 0 0 2h2.041l1.915 46.021C10.493 55.743 11.565 59 15.364 59h28.272c3.799 0 4.871-3.257 4.907-4.958L50.459 8H52.5a1 1 0 1 0 0-2zM21.792 2.681C22.24 2.223 22.799 2 23.5 2h9.999c.701 0 1.26.223 1.708.681.805.823 1.128 2.271 1.24 3.319H20.553c.112-1.048.435-2.496 1.239-3.319zm24.752 51.298C46.538 54.288 46.4 57 43.636 57H15.364c-2.734 0-2.898-2.717-2.909-3.042L10.542 8h37.915l-1.913 45.979z"></path></svg><svg viewBox="0 0 511.999 511.999" width="511.999" height="511.999" id="graphic-chart" y="5842"><path d="M128.024 34.335C5.603 105.015-36.342 261.555 34.338 383.977s227.22 164.366 349.641 93.686 164.366-227.22 93.686-349.641S250.446-36.345 128.024 34.335zm223.552 387.202c-91.424 52.784-208.328 21.46-261.112-69.965S69.004 143.244 160.429 90.46 368.757 69 421.541 160.425 443 368.753 351.576 421.537z"></path><path d="M60.265 369.008c-68.167-118.069-31.564-267.86 80.946-341.77C9.002 93.728-38.979 256.988 34.338 383.977c70.68 122.421 227.22 164.366 349.641 93.686a259.534 259.534 0 0 0 12.74-7.872c-120.262 60.482-268.287 17.285-336.454-100.783zm340.514-237.815l49.086-42.315C402.928 34.479 333.488.044 256.002.044v64.808c57.867 0 109.724 25.716 144.777 66.341z"></path><path d="M64.855 255.999c0-105.568 85.58-191.147 191.147-191.147V.044C114.641.044.047 114.639.047 255.999c0 62.1 22.121 119.029 58.905 163.352l49.893-41.361c-27.47-33.1-43.99-75.615-43.99-121.991z"></path><path d="M141.211 27.238C-7.216 101.883-45.142 293.923 58.952 419.351l22.735-18.847C-12.24 282.266 15.922 109.542 141.211 27.238zm111.242 37.659L192.771 7.922a253.988 253.988 0 0 0-38.019 12.945l52.622 50.235c14.432-3.786 29.528-5.922 45.079-6.205z"></path><path d="M93.79 58.008l47.348 45.199a191.243 191.243 0 0 1 30.609-18.819l-49.115-46.886A257.01 257.01 0 0 0 93.79 58.008z"></path><path d="M122.66 37.53a249.535 249.535 0 0 0-28.862 20.486l4.674 4.462a254.629 254.629 0 0 1 25.988-23.23l-1.8-1.718zM68.451 81.847a257 257 0 0 0-22.013 27.182l47.597 45.438a191.932 191.932 0 0 1 21.293-27.869L68.451 81.847z"></path><path d="M56.911 119.027a255.271 255.271 0 0 1 19.048-30.011l-7.506-7.166c-8.182 8.805-15.313 17.682-22.014 27.18l10.472 9.997zm-29.416 21.56a254.36 254.36 0 0 0-14.368 34.452l53.982 51.533a189.73 189.73 0 0 1 10.167-38.462l-49.781-47.523z"></path><path d="M13.189 175.097l17.566 16.769a257.427 257.427 0 0 1 10.56-38.087l-13.794-13.168a256.703 256.703 0 0 0-14.332 34.486zm52.409 97.839L3.546 213.699a255.596 255.596 0 0 0-3.47 44.923l83.289 79.51a189.894 189.894 0 0 1-17.767-65.196z"></path><path d="M3.567 213.72C1.049 228.708-.081 243.517.075 258.622l30.056 28.692a254.785 254.785 0 0 1-4.117-52.165L3.567 213.72zm55.385 205.631l29.899-24.786-81.546-77.846c9.322 38.307 27.256 73.243 51.647 102.632z"></path><path d="M58.952 419.351l22.735-18.847c-9.105-11.462-16.75-23.051-23.515-35.226L7.313 316.727c9.113 37.418 26.909 72.826 51.639 102.624zM449.864 88.877l-49.086 42.315c28.895 33.488 46.371 77.105 46.371 124.807h64.808c0-63.874-23.401-122.28-62.093-167.122z"></path></svg><svg viewBox="0 0 489.5 489.5" width="489.5" height="489.5" id="group" y="6354"><path d="M480.3 448.45v-17.5c0-3.7-1.6-7.2-4.5-9.5-15.8-13-32.8-21.6-36.3-23.3-.4-.2-.6-.6-.6-1v-24.6c3.1-2.1 5.1-5.6 5.1-9.6v-25.5c0-12.7-10.3-23-23-23h-5.4c-12.7 0-23 10.3-23 23v25.5c0 4 2 7.5 5.1 9.6v24.6c0 .4-.2.8-.6 1-3.5 1.7-20.5 10.3-36.3 23.3-2.9 2.3-4.5 5.9-4.5 9.5v17.5" fill="#5fbcf9"></path><path d="M306.5 448.45v-17.5c0-3.7-1.6-7.2-4.5-9.5-15.8-13-32.8-21.6-36.3-23.3-.4-.2-.6-.6-.6-1v-24.6c3.1-2.1 5.1-5.6 5.1-9.6v-25.5c0-12.7-10.3-23-23-23h-5.5c-12.7 0-23 10.3-23 23v25.5c0 4 2 7.5 5.1 9.6v24.6c0 .4-.2.8-.6 1-3.5 1.7-20.5 10.3-36.3 23.3-2.9 2.3-4.5 5.9-4.5 9.5v17.5" fill="#fff"></path><path d="M131.7 446.85v-17.3c0-3.6-1.6-7.1-4.4-9.4-15.6-12.8-32.4-21.3-35.9-23-.4-.2-.6-.6-.6-1v-24.3c3.1-2 5.1-5.5 5.1-9.5v-25.2c0-12.5-10.2-22.7-22.7-22.7h-5.5c-12.5 0-22.7 10.2-22.7 22.7v25.2c0 3.9 2 7.4 5.1 9.5v24.3c0 .4-.2.8-.6 1-3.4 1.7-20.3 10.2-35.9 23-2.8 2.3-4.4 5.8-4.4 9.4v17.3" fill="#5fbcf9"></path><path d="M315.5 202.55c5 0 9.1-4.1 9.1-9.1v-19.9c0-7-3.1-13.5-8.4-17.9-14.9-12.2-30.8-21.2-38.7-25.4v-19.1c3.7-4 5.8-9.4 5.8-15v-29c0-19.4-15.8-35.2-35.2-35.2h-6.2c-19.4 0-35.2 15.8-35.2 35.2v29c0 5.6 2.1 10.9 5.8 15v19.1c-7.9 4.1-23.8 13.1-38.7 25.4-5.3 4.4-8.4 10.9-8.4 17.9v19.9c0 5 4.1 9.1 9.1 9.1s9.1-4.1 9.1-9.1v-19.9c0-1.5.7-2.9 1.8-3.9 17.2-14.2 35.9-23.6 39.5-25.3 3.5-1.7 5.8-5.4 5.8-9.3v-28c0-3-1.5-5.9-4-7.5-1.1-.8-1.8-2-1.8-3.3v-29c0-9.4 7.6-17 17-17h6.2c9.4 0 17 7.6 17 17v29c0 1.3-.7 2.6-1.8 3.3-2.5 1.7-4 4.5-4 7.5v28c0 3.9 2.3 7.6 5.8 9.3 3.6 1.7 22.3 11.2 39.5 25.3 1.1.9 1.8 2.3 1.8 3.9v19.9c.1 5.1 4.1 9.1 9.1 9.1z"></path><path d="M236 282.05c0 5 4.1 9.1 9.1 9.1s9.1-4.1 9.1-9.1v-27.8h155.1v27.8c0 5 4.1 9.1 9.1 9.1s9.1-4.1 9.1-9.1v-36.9c0-5-4.1-9.1-9.1-9.1H254.1v-27.8c0-5-4.1-9.1-9.1-9.1s-9.1 4.1-9.1 9.1v27.8H71.1c-5 0-9.1 4.1-9.1 9.1v36.9c0 5 4.1 9.1 9.1 9.1s9.1-4.1 9.1-9.1v-27.8H236v27.8zm217 80.9v-25.5c0-17.7-14.4-32-32-32h-5.5c-17.7 0-32 14.4-32 32v25.5c0 5.1 1.9 9.9 5.1 13.6v15.7c-7.1 3.8-20.8 11.6-33.6 22.1-5 4.1-7.8 10.1-7.8 16.6v17.5c0 5 4.1 9.1 9.1 9.1s9.1-4.1 9.1-9.1v-17.5c0-1 .4-1.9 1.2-2.5 15.1-12.4 31.4-20.6 34.5-22.1 3.5-1.7 5.7-5.3 5.7-9.2v-24.6c0-3-1.5-5.9-4-7.5-.3-.2-1.1-.9-1.1-2v-25.5c0-7.7 6.2-13.9 13.9-13.9h5.5c7.7 0 13.9 6.2 13.9 13.9v25.5c0 1.2-.8 1.8-1.1 2-2.5 1.7-4 4.5-4 7.5v24.6c0 3.9 2.2 7.5 5.7 9.2 3.1 1.5 19.5 9.8 34.5 22.1.8.6 1.2 1.5 1.2 2.5v17.5c0 5 4.1 9.1 9.1 9.1s9.1-4.1 9.1-9.1v-17.5c0-6.4-2.8-12.5-7.8-16.6-12.8-10.5-26.5-18.4-33.6-22.1v-15.7c3.1-3.7 4.9-8.5 4.9-13.6zm-146.5 94.6c5 0 9.1-4.1 9.1-9.1v-17.5c0-6.4-2.8-12.5-7.8-16.6-12.8-10.5-26.5-18.4-33.6-22.1v-15.7c3.3-3.7 5.1-8.5 5.1-13.6v-25.5c0-17.7-14.4-32-32-32h-5.6c-17.7 0-32 14.4-32 32v25.5c0 5.1 1.9 9.9 5.1 13.6v15.7c-7.1 3.8-20.8 11.6-33.6 22.1-5 4.1-7.8 10.1-7.8 16.6v17.5c0 5 4.1 9.1 9.1 9.1s9.1-4.1 9.1-9.1v-17.5c0-1 .4-1.9 1.2-2.5 15.1-12.4 31.4-20.6 34.5-22.1 3.5-1.7 5.7-5.3 5.7-9.2v-24.6c0-3-1.5-5.9-4-7.5-.3-.2-1.1-.9-1.1-2v-25.5c0-7.7 6.2-13.9 13.9-13.9h5.5c7.7 0 13.9 6.2 13.9 13.9v25.5c0 1.2-.8 1.8-1.1 2-2.5 1.7-4 4.5-4 7.5v24.6c0 3.9 2.2 7.5 5.7 9.2 3.1 1.5 19.5 9.8 34.5 22.1.8.6 1.2 1.5 1.2 2.5v17.5c-.1 5 4 9.1 9 9.1zm-174.8-1.6c5 0 9.1-4.1 9.1-9.1v-17.3c0-6.4-2.8-12.4-7.8-16.4-12.6-10.4-26.1-18.1-33.2-21.9v-15.4c3.2-3.7 5.1-8.4 5.1-13.5v-25.2c0-17.5-14.2-31.8-31.8-31.8h-5.4c-17.5 0-31.8 14.2-31.8 31.8v25.2c0 5 1.8 9.8 5.1 13.5v15.4c-7.1 3.8-20.5 11.5-33.2 21.9-4.9 4-7.8 10-7.8 16.4v17.3c0 5 4.1 9.1 9.1 9.1s9.1-4.1 9.1-9.1v-17.3c0-1 .4-1.8 1.1-2.4 14.9-12.2 31-20.4 34.1-21.9 3.5-1.7 5.7-5.3 5.7-9.1v-24.3c0-3-1.5-5.9-4-7.5-.3-.2-1-.8-1-1.9v-25.2c0-7.5 6.1-13.6 13.6-13.6h5.4c7.5 0 13.6 6.1 13.6 13.6v25.2c0 1.1-.7 1.7-1 1.9-2.5 1.7-4 4.5-4 7.5v24.3c0 3.9 2.2 7.5 5.7 9.2 3.1 1.5 19.2 9.7 34.1 21.9.7.6 1.1 1.5 1.1 2.4v17.2c0 5.1 4.1 9.1 9.1 9.1z"></path></svg><svg viewBox="0 0 471.701 471.701" width="471.701" height="471.701" id="heart" y="6844"><path d="M433.601 67.001c-24.7-24.7-57.4-38.2-92.3-38.2s-67.7 13.6-92.4 38.3l-12.9 12.9-13.1-13.1c-24.7-24.7-57.6-38.4-92.5-38.4-34.8 0-67.6 13.6-92.2 38.2-24.7 24.7-38.3 57.5-38.2 92.4 0 34.9 13.7 67.6 38.4 92.3l187.8 187.8c2.6 2.6 6.1 4 9.5 4 3.4 0 6.9-1.3 9.5-3.9l188.2-187.5c24.7-24.7 38.3-57.5 38.3-92.4.1-34.9-13.4-67.7-38.1-92.4zm-19.2 165.7l-178.7 178-178.3-178.3c-19.6-19.6-30.4-45.6-30.4-73.3s10.7-53.7 30.3-73.2c19.5-19.5 45.5-30.3 73.1-30.3 27.7 0 53.8 10.8 73.4 30.4l22.6 22.6c5.3 5.3 13.8 5.3 19.1 0l22.4-22.4c19.6-19.6 45.7-30.4 73.3-30.4 27.6 0 53.6 10.8 73.2 30.3 19.6 19.6 30.3 45.6 30.3 73.3.1 27.7-10.7 53.7-30.3 73.3z"></path></svg><svg viewBox="0 0 486.196 486.196" width="486.196" height="486.196" id="house" y="7316"><path d="M481.708 220.456l-228.8-204.6c-.4-.4-.8-.7-1.3-1-5-4.8-13-5-18.3-.3l-228.8 204.6c-5.6 5-6 13.5-1.1 19.1 2.7 3 6.4 4.5 10.1 4.5 3.2 0 6.4-1.1 9-3.4l41.2-36.9v238.6c0 18.7 15.2 34 34 34h72.2c17.6 0 31.9-14.3 31.9-31.9v-121.3c0-2.7 2.2-4.9 4.9-4.9h72.9c2.7 0 4.9 2.2 4.9 4.9v121.3c0 17.6 14.3 31.9 31.9 31.9h72.2c19 0 34-18.7 34-42.6v-228.7l41.2 36.9c2.6 2.3 5.8 3.4 9 3.4 3.7 0 7.4-1.5 10.1-4.5 4.8-5.6 4.3-14.1-1.2-19.1zm-86.2 66.7v145.1c0 9.7-4.8 15.6-7 15.6h-72.2c-2.7 0-4.9-2.2-4.9-4.9v-121.1c0-17.6-14.3-31.9-31.9-31.9h-72.9c-17.6 0-31.9 14.3-31.9 31.9v121.3c0 2.7-2.2 4.9-4.9 4.9h-72.2c-3.8 0-7-3.1-7-7v-262.8l151.8-135.6 153.1 136.9v107.6z"></path></svg><svg viewBox="0 0 490.4 490.4" width="490.4" height="490.4" id="interface" y="7803"><path d="M245.2 490.4c135.2 0 245.2-110 245.2-245.2S380.4 0 245.2 0 0 110 0 245.2s110 245.2 245.2 245.2zm0-465.9c121.7 0 220.7 99 220.7 220.7s-99 220.7-220.7 220.7-220.7-99-220.7-220.7 99-220.7 220.7-220.7z"></path><path d="M206.5 349.6c2.3 2.3 5.4 3.6 8.7 3.6 3.2 0 6.3-1.3 8.6-3.6l147.5-146.7c2.3-2.3 3.6-5.4 3.6-8.7 0-3.2-1.3-6.4-3.6-8.7l-44.6-44.8c-4.8-4.8-12.5-4.8-17.3-.1l-94 93.5-34.2-34.4c-2.3-2.3-5.4-3.6-8.7-3.6-3.2 0-6.3 1.3-8.6 3.6l-44.8 44.6c-2.3 2.3-3.6 5.4-3.6 8.7 0 3.2 1.3 6.4 3.6 8.7l87.4 87.9zm-34-123.9l34.3 34.5c4.8 4.8 12.5 4.8 17.3.1l94-93.5 27.3 27.4-130.1 129.4-70.2-70.6 27.4-27.3z"></path></svg><svg viewBox="0 0 490.2 490.2" width="490.2" height="490.2" id="like" y="8294"><path d="M490.1 234.464c0-37.6-30.6-68.3-68.3-68.3H316.2v-76.1c0-32.2-9.4-55.4-28-69-29.4-21.6-69.8-9.3-71.5-8.7-5.1 1.6-8.6 6.3-8.6 11.7v85.5c0 67.3-78.1 90.2-81.4 91.2-1 .3-1.9.6-2.7 1.1-5.8-11.6-17.8-19.6-31.6-19.6H35.2c-19.4 0-35.2 15.8-35.2 35.2v207.9c0 19.4 15.8 35.2 35.2 35.2h33.1c6.8 0 12.3-5.5 12.3-12.3s-5.6-12.2-12.3-12.2H35.2c-5.9 0-10.7-4.8-10.7-10.7v-207.9c0-5.9 4.8-10.7 10.7-10.7h57.3c5.9 0 10.7 4.8 10.7 10.7v196.1c0 37.6 30.6 68.3 68.3 68.3h209.2c46.4 0 75.9-24.3 81.1-66.3l28.2-177c.1-.6.2-1.3.2-1.9v-2.2h-.1zm-24.5 1.1l-28.1 176.5c-3.7 30-22.8 45.3-56.8 45.3H171.5c-24.1 0-43.8-19.6-43.8-43.8v-189.1c1.8.4 3.7.3 5.6-.2 4.1-1.1 99.3-28.7 99.3-114.8v-75.6c10.4-1.6 28.2-2.5 41.1 6.9 11.9 8.8 18 25.3 18 49.3v88.4c0 6.8 5.5 12.3 12.3 12.3h117.9c24.1 0 43.8 19.6 43.8 43.8v1h-.1z"></path></svg><svg viewBox="0 0 512 512" width="512" height="512" id="line-graph" y="8785"><path d="M123.586 282.483h17.655v203.034h-17.655zm-52.965 97.103h17.655v105.931H70.621zm105.931-167.724h17.655v273.655h-17.655zm52.965 194.207h17.655v79.448h-17.655zm52.966-35.31h17.655v114.759h-17.655zm52.965-52.966h17.655v167.724h-17.655zM388.414 35.31h17.655v450.207h-17.655zm52.965 388.414h17.655v61.793h-17.655z"></path><path d="M450.207 432.556a8.806 8.806 0 0 1-2.793-.457l-158.897-52.966a8.829 8.829 0 0 1-4.552-3.478l-99.009-148.513-45.483 60.638c-2.69 3.582-7.647 4.586-11.509 2.327l-105.93-61.793a8.828 8.828 0 0 1-3.177-12.073c2.461-4.207 7.858-5.633 12.073-3.177l99.138 57.832 48.25-64.332c1.716-2.293 4.396-3.729 7.306-3.526a8.826 8.826 0 0 1 7.1 3.927l104.25 156.375L453 415.35a8.829 8.829 0 0 1 5.582 11.168c-1.232 3.698-4.677 6.038-8.375 6.038z"></path><path d="M26.474 494.345a8.825 8.825 0 0 1-7.887-12.775l52.966-105.931c1.732-3.47 5.543-5.388 9.35-4.759l155.168 25.863 100.142-75.107 52.345-287.901c.871-4.793 5.465-7.957 10.263-7.107 4.798.871 7.978 5.47 7.107 10.263L352.962 328.2a8.812 8.812 0 0 1-3.388 5.483l-105.931 79.448a8.756 8.756 0 0 1-6.75 1.646L84.427 389.366 34.38 489.465a8.823 8.823 0 0 1-7.906 4.88zm.009-52.966H8.828a8.829 8.829 0 0 1 0-17.656h17.655v17.656zm0-52.965H8.828a8.829 8.829 0 0 1 0-17.656h17.655v17.656zm0-52.966H8.828a8.829 8.829 0 0 1 0-17.656h17.655v17.656zm0-52.965H8.828a8.829 8.829 0 0 1 0-17.656h17.655v17.656zm0-52.966H8.828a8.829 8.829 0 0 1 0-17.656h17.655v17.656zm0-52.965H8.828a8.829 8.829 0 0 1 0-17.656h17.655v17.656zm0-52.966H8.828a8.829 8.829 0 0 1 0-17.656h17.655v17.656zm0-52.965H8.828a8.829 8.829 0 0 1 0-17.656h17.655v17.656zm432.551 414.896v17.655a8.829 8.829 0 0 1-17.656 0v-17.655h17.656zm-52.965 0v17.655a8.829 8.829 0 0 1-17.656 0v-17.655h17.656zm-52.966 0v17.655a8.829 8.829 0 0 1-17.656 0v-17.655h17.656zm-52.965 0v17.655a8.829 8.829 0 0 1-17.656 0v-17.655h17.656zm-52.966 0v17.655a8.829 8.829 0 0 1-17.656 0v-17.655h17.656zm-52.965 0v17.655a8.829 8.829 0 0 1-17.656 0v-17.655h17.656zm-52.966 0v17.655a8.829 8.829 0 0 1-17.656 0v-17.655h17.656zm-52.965 0v17.655a8.829 8.829 0 0 1-17.656 0v-17.655h17.656z"></path><path d="M26.483 512a8.829 8.829 0 0 1-8.828-8.828V8.828a8.829 8.829 0 0 1 17.656 0v494.345A8.83 8.83 0 0 1 26.483 512z"></path><path d="M0 485.517a8.829 8.829 0 0 1 8.828-8.828h494.345a8.829 8.829 0 0 1 0 17.656H8.828A8.829 8.829 0 0 1 0 485.517z"></path><circle cx="79.448" cy="379.586" r="17.655"></circle><circle cx="132.414" cy="282.483" r="17.655"></circle><circle cx="185.379" cy="211.862" r="17.655"></circle><circle cx="291.31" cy="370.759" r="17.655"></circle><circle cx="450.207" cy="423.724" r="17.655"></circle><g><circle cx="238.345" cy="406.069" r="17.655"></circle><circle cx="344.276" cy="326.621" r="17.655"></circle><circle cx="397.241" cy="35.31" r="17.655"></circle></g></svg><svg viewBox="49.9 10.5 113.4 34" width="113.4" height="34" id="logo-white" y="9297"><path class="st0" d="M57.4 19H61v17.5h-3.6zm19.7 0H63v3.1h5.2v14.4h3.7V22.1h5.2zm45.9 6.3c-1.5-.1-3.4 1.4-3.4 3.3v2.7c0 2.8 1.9 4.1 3.4 4.1 2.1 0 3.3-1.6 3.4-4.1V29c0-1.8-1-3.7-3.4-3.7zm13.5.1c-1.8 0-3.3 1.7-3.7 3.9h7.4c-.4-2.2-1.9-3.9-3.7-3.9z"></path><path class="st0" d="M49.9 10.5v34h113.4v-34H49.9zm32.9 32.9H51V11.6h31.8v31.8zm20-6.9h-13V19h12.5v2.2H92.2v5.3h9.7v2.2h-9.7v5.7h10.6v2.1zm10.5.2l-3.3-4.9-3.4 4.9h-2.5l4.6-6.7-4.2-6.1h2.5l3 4.2 2.9-4.2h2.5l-4.2 6.1 4.7 6.7h-2.6zm15.4-4.9c0 2.2-1.9 5.2-5.3 5.2-1.6 0-2.9-.8-3.8-1.8v6.3h-2.1V24h2.1v1.6c.9-1.2 2.1-2 3.6-2 3.5 0 5.5 3 5.5 5.4v2.8zm7.7 5.4c-3.3 0-6-3.1-6-6.8 0-3.8 2.7-6.8 6-6.8s5.6 3.1 5.6 6.8v.6h-9.2c.2 2.4 1.8 4.3 3.7 4.3 1.4 0 2.7-1 3.3-2.6h2.3c-.9 2.6-3.1 4.5-5.7 4.5zM151 25.8c-3.6-.2-4.1 3.1-4.1 3.1v7.8h-2V23.9h2.1v2.4c.4-1.5 1.4-2.1 2.2-2.3.4-.1 1.8-.1 1.8-.1v1.9zm6.6-.3h-2.1v8.6c.1.8.2 1.1 2.1 1v1.6h-2.3c-1.3 0-1.9-1.5-1.9-2v-9.2h-1.8v-1.6h1.8v-3.6h2.1v3.6h2.1v1.6z"></path></svg><svg viewBox="0 0 451 451" width="451" height="451" id="magnifying-glass" y="9331"><path d="M447.05 428l-109.6-109.6c29.4-33.8 47.2-77.9 47.2-126.1C384.65 86.2 298.35 0 192.35 0 86.25 0 .05 86.3.05 192.3s86.3 192.3 192.3 192.3c48.2 0 92.3-17.8 126.1-47.2L428.05 447c2.6 2.6 6.1 4 9.5 4s6.9-1.3 9.5-4c5.2-5.2 5.2-13.8 0-19zM26.95 192.3c0-91.2 74.2-165.3 165.3-165.3 91.2 0 165.3 74.2 165.3 165.3s-74.1 165.4-165.3 165.4c-91.1 0-165.3-74.2-165.3-165.4z"></path></svg><svg viewBox="0 0 483.3 483.3" width="483.3" height="483.3" id="mail" y="9782"><path d="M424.3 57.75H59.1c-32.6 0-59.1 26.5-59.1 59.1v249.6c0 32.6 26.5 59.1 59.1 59.1h365.1c32.6 0 59.1-26.5 59.1-59.1v-249.5c.1-32.6-26.4-59.2-59-59.2zm32.1 308.7c0 17.7-14.4 32.1-32.1 32.1H59.1c-17.7 0-32.1-14.4-32.1-32.1v-249.5c0-17.7 14.4-32.1 32.1-32.1h365.1c17.7 0 32.1 14.4 32.1 32.1v249.5h.1z"></path><path d="M304.8 238.55l118.2-106c5.5-5 6-13.5 1-19.1-5-5.5-13.5-6-19.1-1l-163 146.3-31.8-28.4c-.1-.1-.2-.2-.2-.3-.7-.7-1.4-1.3-2.2-1.9L78.3 112.35c-5.6-5-14.1-4.5-19.1 1.1-5 5.6-4.5 14.1 1.1 19.1l119.6 106.9-119.1 111.5c-5.4 5.1-5.7 13.6-.6 19.1 2.7 2.8 6.3 4.3 9.9 4.3 3.3 0 6.6-1.2 9.2-3.6l120.9-113.1 32.8 29.3c2.6 2.3 5.8 3.4 9 3.4s6.5-1.2 9-3.5l33.7-30.2 120.2 114.2c2.6 2.5 6 3.7 9.3 3.7 3.6 0 7.1-1.4 9.8-4.2 5.1-5.4 4.9-14-.5-19.1l-118.7-112.7z"></path></svg><svg width="459" height="459" viewBox="0 0 459 459" id="menu" y="10266"><path d="M0 382.5h459v-51H0v51zM0 255h459v-51H0v51zM0 76.5v51h459v-51H0z"></path></svg><svg viewBox="0 0 512.001 512.001" width="512.001" height="512.001" id="network" y="10725"><path d="M88.222 159.632c-82.142 0-73.034 99.89-72.659 172.277.014 2.734 1.446 5.198 3.788 6.61 9.102 5.487 34.1 18.316 68.871 18.316s59.769-12.829 68.871-18.316c2.341-1.412 3.774-3.876 3.788-6.61.375-72.387 9.483-172.277-72.659-172.277z"></path><path d="M82.93 159.838c-76.395 4.283-67.733 101.295-67.367 172.071.014 2.734 1.446 5.199 3.788 6.61 9.102 5.487 34.1 18.316 68.871 18.316l20.759-145.308"></path><path d="M88.222 159.632c-46.706 0-49.949 56.436-49.949 56.436 26.921-4.541 43.463 6.811 70.708-4.541L88.222 356.835c34.772 0 59.769-12.829 68.871-18.316 2.341-1.412 3.774-3.876 3.788-6.61.375-72.387 9.483-172.277-72.659-172.277z"></path><path d="M160.881 331.909c.322-62.201 7.037-144.651-43.183-166.639-.876 4.55-2.463 17.253 1.661 25.498 10.379 20.759 20.759 20.759 31.137 36.327 10.379 57.085-19.831 117.674-29.865 125.923 17.778-4.228 30.522-10.919 36.462-14.499 2.341-1.411 3.774-3.876 3.788-6.61z"></path><path d="M166.864 347.653l-46.307-19.294a10.379 10.379 0 0 1-6.387-9.581v-12.541H62.275v12.541c0 4.191-2.52 7.97-6.387 9.581L9.581 347.653A15.57 15.57 0 0 0 0 362.025v20.759c0 5.732 4.647 10.379 10.379 10.379h155.686c5.732 0 10.379-4.647 10.379-10.379v-20.759a15.568 15.568 0 0 0-9.58-14.372z"></path><path d="M166.864 347.653l-44.773-18.656-33.869 14.618-33.869-14.617-44.772 18.656A15.568 15.568 0 0 0 0 362.025v20.759c0 5.732 4.647 10.379 10.379 10.379h155.686c5.732 0 10.379-4.647 10.379-10.379v-20.759a15.568 15.568 0 0 0-9.58-14.372z"></path><path d="M114.17 306.237H62.275v12.541c0 4.191-2.52 7.97-6.387 9.581l-7.232 3.014c55.345 14.112 65.514-25.136 65.514-25.136zm-88.876 61.492L4.464 351.16C1.673 354.014 0 357.874 0 362.025v20.759c0 5.732 4.647 10.379 10.379 10.379h20.759v-13.276a15.572 15.572 0 0 0-5.844-12.158zm151.151 15.054v-20.759c0-4.119-1.645-7.952-4.397-10.8l-20.898 16.504a15.567 15.567 0 0 0-5.843 12.157v13.275h20.759c5.732.002 10.379-4.645 10.379-10.377zm-87.444 0h-1.557a4.411 4.411 0 0 1-4.411-4.411v-34.745h10.379v34.744a4.411 4.411 0 0 1-4.411 4.412z"></path><path d="M88.222 343.616L58.52 321.34a4.151 4.151 0 0 0-5.945 1.018l-5.869 8.803 18.21 25.494a4.152 4.152 0 0 0 5.972.829l17.334-13.868zm0 0l29.702-22.276a4.151 4.151 0 0 1 5.945 1.018l5.869 8.803-18.21 25.494a4.152 4.152 0 0 1-5.972.829l-17.334-13.868zm25.948-137.277c-25.948 25.947-76.87 5.188-76.87 46.704l3.222 30.581a20.762 20.762 0 0 0 10.591 16.267l29.548 16.415a15.569 15.569 0 0 0 15.121 0l29.548-16.415a20.756 20.756 0 0 0 10.591-16.267l3.72-36.32c.265-2.582.321-5.179.234-7.769-1.94-13.21-20.516-22.818-25.705-33.196z"></path><path d="M37.3 253.043l3.222 30.581a20.762 20.762 0 0 0 10.591 16.267l29.548 16.415c3.263 1.813 7.005 2.282 10.567 1.579 0 0-14.897-4.515-23.764-28.516-2.716-7.352-6.487-46.274-3.243-51.031 6.412-9.402 42.165-10.379 52.729-27.822a29.188 29.188 0 0 1-1.444-1.945c-.035-.052-.078-.105-.114-.158a19.736 19.736 0 0 1-1.223-2.077c-25.947 25.95-76.869 5.191-76.869 46.707zm88.806 129.74h-13.493a8.822 8.822 0 0 0-8.822 8.822v1.557h31.137v-1.557a8.822 8.822 0 0 0-8.822-8.822zm316.674-59.259v-28.502h-73.293v28.502l36.646 32.575z"></path><path d="M499.443 336.857l-50.385-11.855a8.087 8.087 0 0 1-2.115-.851l-40.81 23.806L366.915 323a8.112 8.112 0 0 1-3.706 2.003l-50.385 11.855a16.287 16.287 0 0 0-12.557 15.855v31.89a8.144 8.144 0 0 0 8.144 8.144h195.447a8.144 8.144 0 0 0 8.144-8.144v-31.89a16.292 16.292 0 0 0-12.559-15.856z"></path><path d="M369.487 295.022v30.073c46.165 16.632 73.293-24.995 73.293-24.995v-5.078h-73.293z"></path><path d="M353.2 201.37l3.549 78.063a24.432 24.432 0 0 0 9.747 18.435l16.836 12.627a24.43 24.43 0 0 0 14.658 4.886h16.287c5.286 0 10.43-1.715 14.658-4.886l16.836-12.627a24.43 24.43 0 0 0 9.747-18.435l3.549-78.063H353.2z"></path><path d="M393.918 217.657c16.287 0 40.718-4.071 46.513-16.287H353.2l3.548 78.063a24.432 24.432 0 0 0 9.747 18.435l16.836 12.627a24.43 24.43 0 0 0 14.658 4.886h8.144c-8.144 0-24.431-16.287-24.431-36.647v-48.862c0-4.071 4.072-12.215 12.216-12.215zm88.189 148.662l26.385-23.702A16.26 16.26 0 0 1 512 352.711v31.89a8.144 8.144 0 0 1-8.144 8.144h-28.502v-11.28a20.359 20.359 0 0 1 6.753-15.146zm-65.794 26.426h-20.36l2.546-36.646h15.269z"></path><path d="M416.313 347.955h-20.36v2.352c0 5.448 4.416 9.863 9.863 9.863h.632c5.448 0 9.863-4.416 9.863-9.863v-2.352h.002z"></path><path d="M368.914 314.46l37.218 33.496s-10.423 5.261-23.286 15.867c-2.653 2.188-6.667 1.301-8.09-1.829l-17.486-38.468 5.532-8.297a4.071 4.071 0 0 1 6.112-.769zm74.437 0l-37.218 33.496s10.423 5.261 23.286 15.867c2.653 2.188 6.667 1.301 8.09-1.829l17.486-38.468-5.532-8.297a4.071 4.071 0 0 0-6.112-.769zm-12.533-140.066l3.818 26.976c17.425 3.485 19.936 30.83 20.298 38.641a8.036 8.036 0 0 0 1.287 3.979l6.649 10.313s-2.276-17.051 8.144-28.502c-.001 0 3.576-67.694-40.196-51.407z"></path><path d="M466.954 252.562l-4.599 18.393a4.896 4.896 0 0 1-9.607-.58l-2.351-18.812c-.629-5.031 3.294-9.474 8.363-9.474h.017c5.484-.001 9.507 5.153 8.177 10.473zm-109.853-85.463l6.023 4.114c-27.23 20.105-22.141 54.588-22.141 54.588 8.144 8.144 8.144 28.502 8.144 28.502l8.144-8.144s-3.143-23.525 12.216-32.574c14.251-8.398 26.721-4.071 39.445-4.071 34.101 0 43.645-12.852 41.991-28.502-.856-8.099-13.238-24.967-44.789-24.431-12.735.216-36.647 4.072-49.033 10.518z"></path><path d="M354.726 205.951s-4.326-17.051 8.398-34.738c-27.23 20.105-22.141 54.588-22.141 54.588 8.144 8.144 8.144 28.502 8.144 28.502l8.144-8.144s-3.143-23.525 12.215-32.574c14.251-8.398 26.721-4.071 39.445-4.071 5.546 0 10.379-.372 14.684-1.008-26.262.881-41.743-19.011-68.889-2.555z"></path><path d="M345.311 252.562l4.599 18.393a4.896 4.896 0 0 0 9.608-.58l2.351-18.812c.629-5.031-3.294-9.474-8.364-9.474h-.017c-5.482-.001-9.507 5.153-8.177 10.473zm109.684 132.04h-20.36a8.144 8.144 0 0 0-8.144 8.144h36.646a8.142 8.142 0 0 0-8.142-8.144z"></path><path d="M256.155 57.5c-139.642 0-124.158 169.814-123.52 292.871.024 4.647 2.458 8.838 6.439 11.237 15.474 9.328 57.97 31.137 117.081 31.137s101.607-21.809 117.081-31.137c3.98-2.4 6.415-6.59 6.439-11.237.638-123.058 16.122-292.871-123.52-292.871z"></path><path d="M247.157 57.849C117.286 65.13 132.011 230.051 132.635 350.37c.024 4.647 2.458 8.838 6.439 11.237 15.474 9.328 57.97 31.137 117.081 31.137l35.289-247.023"></path><path d="M256.155 57.5c-79.4 0-84.914 95.942-84.914 95.942 45.765-7.719 73.886 11.579 120.203-7.719l-35.289 247.023c59.111 0 101.607-21.809 117.081-31.137 3.98-2.4 6.415-6.59 6.439-11.237.638-123.059 16.122-292.872-123.52-292.872z"></path><path d="M379.675 350.372c.548-105.742 11.962-245.906-73.41-283.286-1.489 7.736-4.185 29.331 2.823 43.348 17.645 35.289 35.289 35.289 52.933 61.756 17.644 97.045-33.714 200.047-50.771 214.068 30.222-7.188 51.887-18.562 61.985-24.649 3.981-2.4 6.416-6.59 6.44-11.237z"></path><path d="M389.846 377.137l-78.722-32.801a17.644 17.644 0 0 1-10.858-16.288v-21.32h-88.222v21.32a17.646 17.646 0 0 1-10.858 16.288l-78.722 32.801a26.467 26.467 0 0 0-16.287 24.431v35.289c0 9.744 7.9 17.645 17.644 17.645h264.667c9.744 0 17.644-7.9 17.644-17.645v-35.289a26.464 26.464 0 0 0-16.286-24.431z"></path><path d="M389.846 377.137l-76.114-31.714-57.577 24.849-57.577-24.849-76.114 31.714a26.467 26.467 0 0 0-16.287 24.431v35.289c0 9.744 7.9 17.645 17.644 17.645h264.667c9.744 0 17.644-7.9 17.644-17.645v-35.289a26.464 26.464 0 0 0-16.286-24.431z"></path><path d="M300.266 306.728h-88.222v21.32a17.646 17.646 0 0 1-10.858 16.288l-12.295 5.124c94.087 23.989 111.375-42.732 111.375-42.732zM149.178 411.265l-35.411-28.167c-4.744 4.852-7.588 11.413-7.588 18.469v35.289c0 9.744 7.9 17.644 17.644 17.644h35.289v-22.568a26.475 26.475 0 0 0-9.934-20.667zm256.955 25.591v-35.289c0-7.002-2.797-13.518-7.475-18.359l-35.526 28.057a26.468 26.468 0 0 0-9.933 20.667V454.5h35.289c9.745.001 17.645-7.899 17.645-17.644zm-149.978 0a8.822 8.822 0 0 1-8.822-8.822v-57.742h17.644v57.743a8.821 8.821 0 0 1-8.822 8.821z"></path><path d="M256.155 370.272l-50.494-37.871a7.058 7.058 0 0 0-10.107 1.731l-9.977 14.966 30.957 43.339a7.058 7.058 0 0 0 10.152 1.409l29.469-23.574zm0 0l50.494-37.871a7.058 7.058 0 0 1 10.107 1.731l9.977 14.966-30.957 43.339a7.058 7.058 0 0 1-10.152 1.409l-29.469-23.574zM300.266 136.9c-44.111 44.111-130.679 8.822-130.679 79.4l5.479 51.989a35.286 35.286 0 0 0 18.006 27.653l50.231 27.906a26.466 26.466 0 0 0 25.707 0l50.231-27.906a35.293 35.293 0 0 0 18.006-27.653l6.324-61.745c.45-4.388.546-8.803.397-13.208-3.303-22.457-34.88-38.792-43.702-56.436z"></path><path d="M169.587 216.3l5.479 51.989a35.286 35.286 0 0 0 18.006 27.653l50.231 27.906c5.547 3.081 11.908 3.88 17.963 2.685 0 0-25.326-7.674-40.398-48.477-4.617-12.5-11.028-78.665-5.514-86.752 10.899-15.985 71.681-17.645 89.641-47.298a49.282 49.282 0 0 1-2.455-3.308c-.061-.089-.133-.179-.193-.268-.78-1.172-1.488-2.348-2.079-3.53-44.113 44.111-130.681 8.822-130.681 79.4zm157.146 220.556h-35.289a8.822 8.822 0 0 0-8.822 8.822v8.822h52.933v-8.822a8.822 8.822 0 0 0-8.822-8.822z"></path></svg><svg viewBox="0 0 512 512" width="512" height="512" id="pencil-case" y="11238"><path d="M421.36 83.741a8.96 8.96 0 0 1-2.295-.3l-25.582-6.859c-4.705-1.254-7.503-6.1-6.241-10.805 1.254-4.705 6.118-7.503 10.805-6.241l25.591 6.85c4.705 1.262 7.495 6.109 6.241 10.814-1.051 3.937-4.626 6.541-8.519 6.541M329.955 512H135.748c-14.627 0-26.483-11.855-26.483-26.483V282.483h247.172v203.034c.001 14.628-11.855 26.483-26.482 26.483m26.483-229.517H109.265c-14.627 0-26.483-11.855-26.483-26.483 0-14.627 11.855-26.483 26.483-26.483h247.172c14.627 0 26.483 11.855 26.483 26.483 0 14.627-11.855 26.483-26.482 26.483m-158.897-52.966h70.621V79.448h-70.621zM232.852 0l-13.25 16.569a100.618 100.618 0 0 0-22.06 62.879h70.621c0-22.855-7.777-45.038-22.06-62.879L232.852 0z"></path><path d="M224.024 229.517h17.655V79.448h-17.655zm144.328-59.137l-68.21-18.282 27.409-102.32 68.22 18.282zm47.204-5.63l-8.527-2.286a8.83 8.83 0 0 1-6.241-10.814l25.132-93.793a8.83 8.83 0 0 1 10.814-6.241l8.527 2.286a8.83 8.83 0 0 1 6.241 10.814l-25.132 93.793c-1.262 4.705-6.109 7.503-10.814 6.241m-19.787-96.692l-68.211-18.282 6.85-25.574c1.262-4.714 6.1-7.503 10.814-6.241l51.156 13.709c4.714 1.254 7.503 6.1 6.241 10.805l-6.85 25.583zm-261.578 1.659L65.98 87.999l-4.573-17.055c-5.049-18.838 6.135-38.206 24.964-43.246 18.838-5.049 38.206 6.126 43.246 24.964l4.574 17.055z"></path><path d="M109.265 229.517h67.743L134.194 69.72l-68.22 18.273 38.065 142.053a26.196 26.196 0 0 1 5.226-.529m234.102 0l16.454-61.422-51.156-13.709-20.135 75.131zm-145.826 220.69h158.897V344.276H197.541z"></path><path d="M232.852 388.414h123.586v-17.655H232.852zm17.655 35.31h105.931v-17.655H250.507z"></path></svg><svg viewBox="0 0 473.806 473.806" width="473.806" height="473.806" id="phone-call" y="11750"><path d="M374.456 293.506c-9.7-10.1-21.4-15.5-33.8-15.5-12.3 0-24.1 5.3-34.2 15.4l-31.6 31.5c-2.6-1.4-5.2-2.7-7.7-4-3.6-1.8-7-3.5-9.9-5.3-29.6-18.8-56.5-43.3-82.3-75-12.5-15.8-20.9-29.1-27-42.6 8.2-7.5 15.8-15.3 23.2-22.8 2.8-2.8 5.6-5.7 8.4-8.5 21-21 21-48.2 0-69.2l-27.3-27.3c-3.1-3.1-6.3-6.3-9.3-9.5-6-6.2-12.3-12.6-18.8-18.6-9.7-9.6-21.3-14.7-33.5-14.7s-24 5.1-34 14.7l-.2.2-34 34.3c-12.8 12.8-20.1 28.4-21.7 46.5-2.4 29.2 6.2 56.4 12.8 74.2 16.2 43.7 40.4 84.2 76.5 127.6 43.8 52.3 96.5 93.6 156.7 122.7 23 10.9 53.7 23.8 88 26 2.1.1 4.3.2 6.3.2 23.1 0 42.5-8.3 57.7-24.8.1-.2.3-.3.4-.5 5.2-6.3 11.2-12 17.5-18.1 4.3-4.1 8.7-8.4 13-12.9 9.9-10.3 15.1-22.3 15.1-34.6 0-12.4-5.3-24.3-15.4-34.3l-54.9-55.1zm35.8 105.3c-.1 0-.1.1 0 0-3.9 4.2-7.9 8-12.2 12.2-6.5 6.2-13.1 12.7-19.3 20-10.1 10.8-22 15.9-37.6 15.9-1.5 0-3.1 0-4.6-.1-29.7-1.9-57.3-13.5-78-23.4-56.6-27.4-106.3-66.3-147.6-115.6-34.1-41.1-56.9-79.1-72-119.9-9.3-24.9-12.7-44.3-11.2-62.6 1-11.7 5.5-21.4 13.8-29.7l34.1-34.1c4.9-4.6 10.1-7.1 15.2-7.1 6.3 0 11.4 3.8 14.6 7l.3.3c6.1 5.7 11.9 11.6 18 17.9 3.1 3.2 6.3 6.4 9.5 9.7l27.3 27.3c10.6 10.6 10.6 20.4 0 31-2.9 2.9-5.7 5.8-8.6 8.6-8.4 8.6-16.4 16.6-25.1 24.4-.2.2-.4.3-.5.5-8.6 8.6-7 17-5.2 22.7l.3.9c7.1 17.2 17.1 33.4 32.3 52.7l.1.1c27.6 34 56.7 60.5 88.8 80.8 4.1 2.6 8.3 4.7 12.3 6.7 3.6 1.8 7 3.5 9.9 5.3.4.2.8.5 1.2.7 3.4 1.7 6.6 2.5 9.9 2.5 8.3 0 13.5-5.2 15.2-6.9l34.2-34.2c3.4-3.4 8.8-7.5 15.1-7.5 6.2 0 11.3 3.9 14.4 7.3l.2.2 55.1 55.1c10.3 10.2 10.3 20.7.1 31.3zm-154.2-286.1c26.2 4.4 50 16.8 69 35.8s31.3 42.8 35.8 69c1.1 6.6 6.8 11.2 13.3 11.2.8 0 1.5-.1 2.3-.2 7.4-1.2 12.3-8.2 11.1-15.6-5.4-31.7-20.4-60.6-43.3-83.5s-51.8-37.9-83.5-43.3c-7.4-1.2-14.3 3.7-15.6 11s3.5 14.4 10.9 15.6zm217.2 96.3c-8.9-52.2-33.5-99.7-71.3-137.5s-85.3-62.4-137.5-71.3c-7.3-1.3-14.2 3.7-15.5 11-1.2 7.4 3.7 14.3 11.1 15.6 46.6 7.9 89.1 30 122.9 63.7 33.8 33.8 55.8 76.3 63.7 122.9 1.1 6.6 6.8 11.2 13.3 11.2.8 0 1.5-.1 2.3-.2 7.3-1.1 12.3-8.1 11-15.4z"></path></svg><svg viewBox="0 0 489.617 489.617" width="489.617" height="489.617" id="pin" y="12224"><path d="M362.81 220.117l-15.1-8.7c-3.2-1.8-5-5.3-4.8-8.9.3-5.3.1-10.5-.5-15.7-.4-3.6 1.2-7.1 4.2-9.1l14.8-10c3.6-2.5 4.9-7.2 3.1-11.2l-4.9-10.6-4.9-10.6c-1.8-4-6.2-6-10.5-4.9l-16.8 4.7c-3.6 1-7.3-.2-9.8-2.9-3.5-3.8-7.2-7.4-11.3-10.7-2.8-2.3-4.2-5.9-3.6-9.4l3.4-17.6c.8-4.3-1.6-8.6-5.7-10.2l-11-4.1-11-4.1c-4.2-1.6-8.8.1-11 3.9l-8.7 15c-1.8 3.2-5.4 5-9.1 4.8-5.5-.3-10.9-.1-16.2.5-3.6.4-7.2-1.1-9.3-4.1l-9.9-14.6c-2.5-3.6-7.2-4.9-11.2-3.1l-10.6 4.9-10.6 4.9c-4 1.8-6 6.2-4.9 10.5l4.6 17.1c.9 3.5-.2 7.2-2.9 9.7-3.9 3.5-7.4 7.4-10.7 11.5-2.3 2.9-5.9 4.3-9.5 3.6l-17.4-3.4c-4.2-.8-8.5 1.6-10.2 5.5l-4.1 11-4.1 11c-1.6 4.2.1 8.8 3.9 11l15.3 8.8c3.2 1.8 5 5.2 4.8 8.9-.2 5.3-.1 10.5.6 15.7.4 3.6-1.1 7.2-4.1 9.2l-14.7 9.9c-3.6 2.5-4.9 7.2-3.1 11.2l4.9 10.6 4.9 10.6c1.8 4 6.2 6 10.5 4.9l17.2-4.8c3.5-.9 7.2.2 9.7 2.9 3.5 3.9 7.4 7.4 11.5 10.7 2.9 2.3 4.3 5.9 3.6 9.5l-3.4 17.4c-.8 4.3 1.6 8.6 5.7 10.2l11 4.1 11 4.1c4.2 1.6 8.8-.1 11-3.9l8.8-15.3c1.8-3.2 5.3-5 8.9-4.8 5 .2 10 0 14.9-.5 3.6-.4 7.2 1.2 9.2 4.2l10 14.8c2.5 3.6 7.2 4.9 11.2 3.1l10.6-4.9 10.6-4.9c4-1.8 6-6.2 4.9-10.5l-4.5-16.9c-1-3.5.2-7.3 2.9-9.7 3.8-3.5 7.4-7.3 10.7-11.4 2.3-2.8 5.9-4.2 9.4-3.6l17.6 3.4c4.3.8 8.6-1.6 10.2-5.7l4.1-11 4.1-11c1.8-4.3.1-8.8-3.7-11zm-76.7-7.8c-6.2 17.4-22.8 29.1-41.2 29.1-5 0-9.9-.9-14.7-2.5-22.7-8.1-34.7-33.1-26.6-55.9 6.2-17.4 22.8-29.1 41.2-29.1 5 0 9.9.9 14.6 2.5 11 3.9 19.8 11.9 24.9 22.4 5.1 10.6 5.7 22.5 1.8 33.5z" fill="#5fbcf9"></path><path d="M436.91 232.517c2.3-12.1 3.5-24.5 3.5-36.9 0-110.2-91.6-199.3-202.6-195.5-97.6 3.4-178.3 79.3-187.7 176.4-1.8 18.8-.9 37.6 2.6 56.1.1.7.5 2.8 1.3 6.2 3 13.3 7.4 26.3 13.1 38.7 21.2 49.9 67.8 126.8 170 209.4 2.2 1.8 4.9 2.7 7.7 2.7s5.5-1 7.7-2.7c102.2-82.6 148.8-159.4 170-209.4 5.7-12.4 10.1-25.4 13.1-38.6.9-3.8 1.3-6 1.3-6.4zm-17.8-3.2c0 .2-.1.3-.1.5-.1.5-.4 2.3-1.1 5-2.7 12.1-6.8 23.9-12 35.2 0 .1-.1.2-.1.3-20 47.5-64.2 120.3-161 199.5-96.8-79.1-141-152-161-199.5 0-.1-.1-.2-.1-.3-5.2-11.3-9.2-23.1-12-35.3-.7-3.1-1-4.7-1.1-5 0-.1 0-.3-.1-.4-3.2-16.8-4-33.9-2.4-51 8.5-88.2 81.7-157 170.3-160 100.7-3.5 183.8 77.4 183.8 177.4.1 11.2-1 22.5-3.1 33.6z"></path><path d="M262.51 147.917c-5.7-2-11.7-3.1-17.7-3.1-22.3 0-42.3 14.1-49.8 35.1-4.7 13.3-4 27.6 2.1 40.4 6.1 12.7 16.7 22.4 30 27.1 5.7 2 11.7 3.1 17.7 3.1 22.3 0 42.3-14.1 49.8-35.1 9.8-27.5-4.6-57.8-32.1-67.5zm15 61.4c-4.9 13.8-18 23.1-32.7 23.1-3.9 0-7.9-.7-11.6-2-18-6.4-27.5-26.3-21.1-44.3 4.9-13.8 18-23.1 32.7-23.1 3.9 0 7.9.7 11.6 2 18.1 6.3 27.5 26.2 21.1 44.3z"></path><path d="M346.71 120.917c-1.6 0-3.1.2-4.8.6l-16.9 4.7c-.2 0-.4-.1-.6-.3-3.9-4.3-8-8.2-12.4-11.6-.2-.1-.4-.4-.3-.7l3.4-17.6c1.6-8.7-3.2-17.2-11.5-20.3l-22-8.2c-2-.8-4.2-1.1-6.3-1.1-6.4 0-12.4 3.5-15.6 9l-8.7 15c-.1.2-.4.3-.7.3-5.9-.3-11.8-.2-17.9.6-.1 0-.4 0-.6-.2l-9.9-14.7c-3.4-4.9-9-7.9-14.9-7.9-2.6 0-5.1.5-7.5 1.6l-21.3 9.7c-8 3.7-12.2 12.5-9.9 21.1l4.6 17.1c.1.2-.1.5-.2.6-4.2 3.8-8.1 8.1-11.7 12.6-.1.2-.3.3-.6.3l-17.4-3.4c-1.1-.2-2.2-.3-3.3-.3-7.3 0-14 4.4-16.9 11.1-.1.1-.1.3-.2.4l-8.2 22c-3.1 8.3.2 17.5 7.9 22l15.3 8.8c.2.1.3.4.3.6-.3 5.8-.1 11.6.6 17.2 0 .2 0 .5-.2.6l-14.7 10c-7.3 5-9.9 14.4-6.3 22.4l9.7 21.3c2.9 6.4 9.4 10.5 16.4 10.5 1.6 0 3.1-.2 4.7-.6l17.2-4.6c.2 0 .4.1.5.3 3.8 4.2 8.1 8.1 12.6 11.7.2.1.3.4.3.6l-3.4 17.4c-1.7 8.7 3.2 17.2 11.5 20.3l22 8.2c2 .8 4.2 1.1 6.3 1.1 6.4 0 12.4-3.5 15.6-9.1l8.8-15.3c.1-.2.4-.3.7-.3 5.4.2 10.9 0 16.5-.6.1 0 .4 0 .6.2l10.1 14.8c3.4 4.9 9 7.9 14.9 7.9 2.6 0 5.1-.5 7.5-1.6l21.3-9.7c8-3.7 12.2-12.5 9.9-21.1l-4.5-16.9c-.1-.3.1-.5.3-.7 4.3-3.9 8.2-8.1 11.7-12.4.2-.2.4-.3.7-.3l17.6 3.3c1.1.2 2.2.3 3.4.3 7.5 0 14.4-4.7 17-11.8l8.2-22c3.1-8.3-.2-17.5-7.9-22l-15.1-8.7c-.2-.1-.3-.4-.3-.6.3-5.7.1-11.4-.5-17.1 0-.3.1-.5.2-.6l14.9-10.1c7.3-5 9.9-14.4 6.3-22.4l-9.7-21.2c-3.1-6.1-9.5-10.2-16.6-10.2zm-5.1 49.2c-5.8 3.9-8.9 10.7-8.1 17.6.5 4.7.7 9.5.4 14.2-.4 7.1 3.2 13.7 9.3 17.3l15.1 8.7-8.2 22-17.6-3.3c-1.1-.2-2.3-.3-3.5-.3-5.7 0-11.1 2.6-14.7 7.1-2.9 3.6-6.2 7.1-9.7 10.3-5.3 4.8-7.4 12-5.6 18.8l4.6 16.8-21.1 9.7-10-14.8c-3.9-5.7-10.7-8.9-17.7-8.1-4.5.5-9 .7-13.5.5-7.1-.3-13.7 3.3-17.2 9.4l-8.8 15.3-22-8.1 3.4-17.4c1.3-6.9-1.3-13.9-6.8-18.3-3.8-3-7.3-6.2-10.5-9.7-3.6-3.9-8.6-6.2-13.9-6.2-1.6 0-3.2.2-4.8.6l-17 4.6-9.7-21.1 14.7-10c5.8-3.9 8.9-10.7 8.1-17.8-.6-4.7-.7-9.5-.5-14.3.3-7.1-3.3-13.6-9.3-17.1l-15.3-8.8 8.1-21.6c0-.1.1-.1.1-.1l17.4 3.4c1.2.2 2.4.3 3.5.3 5.8 0 11.1-2.6 14.7-7.2 3-3.8 6.2-7.3 9.7-10.5 5.2-4.8 7.3-11.9 5.5-18.7l-4.6-17 21.1-9.7 9.9 14.6c3.9 5.8 10.8 8.9 17.9 8.1 4.8-.6 9.7-.7 14.6-.5 7.2.4 13.9-3.2 17.4-9.3l8.6-15 22 8.2-3.4 17.6c-1.3 6.8 1.3 13.8 6.8 18.2 3.6 2.9 7 6.1 10.3 9.7 3.6 4 8.7 6.2 14 6.2 1.7 0 3.4-.2 5-.7l16.6-4.7 9.7 21.1-15 10z"></path></svg><svg viewBox="0 0 477 477" width="477" height="477" id="placeholder" y="12714"><path d="M238.4 0C133 0 47.2 85.8 47.2 191.2c0 12 1.1 24.1 3.4 35.9.1.7.5 2.8 1.3 6.4 2.9 12.9 7.2 25.6 12.8 37.7 20.6 48.5 65.9 123 165.3 202.8 2.5 2 5.5 3 8.5 3s6-1 8.5-3c99.3-79.8 144.7-154.3 165.3-202.8 5.6-12.1 9.9-24.7 12.8-37.7.8-3.6 1.2-5.7 1.3-6.4 2.2-11.8 3.4-23.9 3.4-35.9C429.6 85.8 343.8 0 238.4 0zm161.2 222.4c0 .2-.1.4-.1.6-.1.5-.4 2-.9 4.3v.2c-2.5 11.2-6.2 22.1-11.1 32.6-.1.1-.1.3-.2.4-18.7 44.3-59.7 111.9-148.9 185.6-89.2-73.7-130.2-141.3-148.9-185.6-.1-.1-.1-.3-.2-.4-4.8-10.4-8.5-21.4-11.1-32.6v-.2c-.6-2.3-.8-3.8-.9-4.3 0-.2-.1-.4-.1-.7-2-10.3-3-20.7-3-31.2 0-90.5 73.7-164.2 164.2-164.2s164.2 73.7 164.2 164.2c0 10.6-1 21.1-3 31.3z"></path><path d="M238.4 71.9c-66.9 0-121.4 54.5-121.4 121.4s54.5 121.4 121.4 121.4 121.4-54.5 121.4-121.4S305.3 71.9 238.4 71.9zm0 215.8c-52.1 0-94.4-42.4-94.4-94.4s42.4-94.4 94.4-94.4 94.4 42.4 94.4 94.4-42.3 94.4-94.4 94.4z"></path></svg><svg viewBox="0 0 480 480" width="480" height="480" id="policy" y="13191"><path fill="#5fbcf9" d="M236 328c-22.091 0-40 17.909-40 40s17.909 40 40 40 40-17.909 40-40c-.026-22.08-17.92-39.974-40-40zm0 64c-13.255 0-24-10.745-24-24s10.745-24 24-24 24 10.745 24 24-10.745 24-24 24z"></path><path fill="#5fbcf9" d="M308 344h-12.672c-.136-.328-.264-.656-.4-.984l8.96-8.96a8 8 0 0 0 0-11.312l-22.632-22.632a8.232 8.232 0 0 0-11.312 0l-8.96 8.96-.984-.4V296a8 8 0 0 0-8-8h-32a8 8 0 0 0-8 8v12.672l-.984.4-8.96-8.96a8 8 0 0 0-11.312 0l-22.632 22.632a8 8 0 0 0 0 11.312l8.96 8.96c-.136.328-.272.656-.4.984H164a8 8 0 0 0-8 8v32a8 8 0 0 0 8 8h12.672c.136.328.264.656.4.984l-8.96 8.96a8 8 0 0 0 0 11.312l22.632 22.632a8.232 8.232 0 0 0 11.312 0l8.96-8.96.984.4V440a8 8 0 0 0 8 8h32a8 8 0 0 0 8-8v-12.672l.984-.4 8.96 8.96a8 8 0 0 0 11.312 0l22.632-22.632a8 8 0 0 0 0-11.312l-8.96-8.96c.136-.328.272-.656.4-.984H308a8 8 0 0 0 8-8v-32a8 8 0 0 0-8-8zm-8 32h-10.352a8 8 0 0 0-7.664 5.72 47.43 47.43 0 0 1-3.752 9.112 8 8 0 0 0 1.376 9.472l7.304 7.304-11.312 11.304-7.304-7.304a8 8 0 0 0-9.472-1.376 47.43 47.43 0 0 1-9.112 3.752 8 8 0 0 0-5.72 7.664V432H228v-10.352a8 8 0 0 0-5.72-7.664 47.43 47.43 0 0 1-9.112-3.752 8 8 0 0 0-9.472 1.376l-7.304 7.304-11.304-11.312 7.304-7.304a8 8 0 0 0 1.376-9.472 47.43 47.43 0 0 1-3.752-9.112 8 8 0 0 0-7.664-5.712H172v-16h10.352a8 8 0 0 0 7.664-5.72 47.43 47.43 0 0 1 3.752-9.112 8 8 0 0 0-1.376-9.472l-7.304-7.304L196.4 317.08l7.304 7.304a8 8 0 0 0 9.472 1.376 47.43 47.43 0 0 1 9.112-3.752 8 8 0 0 0 5.712-7.656V304h16v10.352a8 8 0 0 0 5.72 7.664 47.43 47.43 0 0 1 9.112 3.752 8 8 0 0 0 9.472-1.376l7.304-7.304L286.92 328.4l-7.304 7.304a8 8 0 0 0-1.376 9.472 47.43 47.43 0 0 1 3.752 9.112 8 8 0 0 0 7.664 5.72H300V376z"></path><path d="M388 224c-22.091 0-40 17.909-40 40s17.909 40 40 40 40-17.909 40-40c-.026-22.08-17.92-39.974-40-40zm0 64c-13.255 0-24-10.745-24-24s10.745-24 24-24 24 10.745 24 24-10.745 24-24 24z"></path><path d="M460 240h-12.672c-.136-.328-.264-.656-.4-.984l8.96-8.96a8 8 0 0 0 0-11.312l-22.632-22.632a8.232 8.232 0 0 0-11.312 0l-8.96 8.96-.984-.4V192a8 8 0 0 0-8-8h-16V8a8 8 0 0 0-8-8H20a8 8 0 0 0-8 8v464a8 8 0 0 0 8 8h360a8 8 0 0 0 8-8V344h16a8 8 0 0 0 8-8v-12.672l.984-.4 8.96 8.96a8 8 0 0 0 11.312 0l22.632-22.632a8 8 0 0 0 0-11.312l-8.96-8.96c.136-.328.272-.656.4-.984H460a8 8 0 0 0 8-8v-32a8 8 0 0 0-8-8zM348 16h24v168a8 8 0 0 0-8 8v12.672l-.984.4-8.96-8.96a8 8 0 0 0-5.656-2.344h-.4V16zm-16 448H28V16h304v190.864l-11.88 11.88a8 8 0 0 0 0 11.312l8.96 8.96c-.136.328-.272.656-.4.984H316a8 8 0 0 0-8 8v32a8 8 0 0 0 8 8h12.672c.136.328.264.656.4.984l-8.96 8.96a8 8 0 0 0 0 11.312L332 321.136V464zm40 0h-24V334.216a7.68 7.68 0 0 0 6.056-2.336l8.96-8.96.984.4V336a8 8 0 0 0 8 8v120zm80-192h-10.352a8 8 0 0 0-7.664 5.72 47.43 47.43 0 0 1-3.752 9.112 8 8 0 0 0 1.376 9.472l7.304 7.304-11.312 11.304-7.304-7.304a8 8 0 0 0-9.472-1.376 47.43 47.43 0 0 1-9.112 3.752 8 8 0 0 0-5.72 7.664V328H380v-10.352a8 8 0 0 0-5.72-7.664 47.43 47.43 0 0 1-9.112-3.752 8 8 0 0 0-9.472 1.376l-7.304 7.304-11.304-11.312 7.304-7.304a8 8 0 0 0 1.376-9.472 47.43 47.43 0 0 1-3.752-9.112 8 8 0 0 0-7.664-5.712H324v-16h10.352a8 8 0 0 0 7.664-5.72 47.43 47.43 0 0 1 3.752-9.112 8 8 0 0 0-1.376-9.472l-7.304-7.304L348.4 213.08l7.304 7.304a7.915 7.915 0 0 0 2.4 1.6c.28.105.566.193.856.264a7.86 7.86 0 0 0 1.92.376c.16 0 .312.096.472.096.301-.02.6-.058.896-.112.232 0 .464 0 .696-.088a7.96 7.96 0 0 0 2.216-.8 47.43 47.43 0 0 1 9.112-3.752 8 8 0 0 0 5.728-7.616V200h16v10.352a8 8 0 0 0 5.72 7.664 47.43 47.43 0 0 1 9.112 3.752 8 8 0 0 0 9.472-1.376l7.304-7.304L438.92 224.4l-7.304 7.304a8 8 0 0 0-1.376 9.472 47.43 47.43 0 0 1 3.752 9.112 8 8 0 0 0 7.664 5.72H452V272z"></path><path d="M228 56h80v16h-80zM52 56h160v16H52zm72 32h184v16H124zm-72 0h56v16H52zm160 32h96v16h-96zm-160 0h144v16H52zm0 32h256v16H52zm176 32h80v16h-80zm-176 0h160v16H52zm56 32h200v16H108zm-56 0h40v16H52zm0 32h120v16H52z"></path></svg><svg viewBox="0 0 511.996 511.996" width="511.996" height="511.996" id="polling" y="13671"><path d="M465.454 493.882V164.538c0-5.951-4.825-10.776-10.776-10.776h-34.081c-5.951 0-10.776 4.825-10.776 10.776v329.344h55.633zm-242.251 0v-91.904c0-5.951-4.824-10.776-10.776-10.776h-34.081c-5.951 0-10.776 4.825-10.776 10.776v91.904h55.633zm121.126 0v-237.01c0-5.951-4.825-10.776-10.776-10.776h-34.081c-5.951 0-10.776 4.825-10.776 10.776v237.009h55.633zm-242.251 0V353.44c0-5.951-4.825-10.776-10.776-10.776H57.221c-5.951 0-10.776 4.824-10.776 10.776v140.442h55.633z"></path><path d="M448.413 153.762h-27.816c-5.951 0-10.776 4.824-10.776 10.776v329.344h27.816V164.538c0-5.951 4.825-10.776 10.776-10.776zm-242.251 237.44h-27.816c-5.951 0-10.776 4.824-10.776 10.776v91.904h27.816v-91.904c0-5.951 4.825-10.776 10.776-10.776zm121.125-145.105h-27.816c-5.952 0-10.776 4.824-10.776 10.776v237.009h27.816v-237.01c.001-5.95 4.825-10.775 10.776-10.775zM85.036 342.664H57.221c-5.951 0-10.776 4.824-10.776 10.776v140.442h27.816V353.44c0-5.952 4.824-10.776 10.775-10.776zM461.422 73.199h-47.569c-8.296 0-15.022 6.726-15.022 15.022v27.132a7.5 7.5 0 0 0 7.501 7.501h63.244a6.868 6.868 0 0 0 6.868-6.868V88.22c0-8.296-6.725-15.021-15.022-15.021zm-121.125 92.335h-47.569c-8.296 0-15.022 6.726-15.022 15.022v27.132a7.5 7.5 0 0 0 7.501 7.501h63.244a6.868 6.868 0 0 0 6.868-6.868v-27.766c0-8.295-6.726-15.021-15.022-15.021zM219.171 310.639h-47.569c-8.296 0-15.022 6.726-15.022 15.022v27.132a7.5 7.5 0 0 0 7.501 7.501h63.244a6.868 6.868 0 0 0 6.868-6.868V325.66c0-8.295-6.725-15.021-15.022-15.021zM98.046 262.1H50.477c-8.296 0-15.022 6.726-15.022 15.022v27.132a7.5 7.5 0 0 0 7.501 7.501H106.2a6.868 6.868 0 0 0 6.868-6.868v-27.766c0-8.294-6.726-15.021-15.022-15.021z"></path><path d="M437.622 115.354V88.22c0-8.296 6.726-15.022 15.022-15.022h-38.79c-8.296 0-15.022 6.725-15.022 15.022v27.132a7.501 7.501 0 0 0 7.501 7.501h38.79a7.499 7.499 0 0 1-7.501-7.499zm-121.126 92.335v-27.132c0-8.296 6.726-15.022 15.022-15.022h-38.79c-8.296 0-15.022 6.725-15.022 15.022v27.132a7.501 7.501 0 0 0 7.501 7.501h38.791a7.501 7.501 0 0 1-7.502-7.501zM195.371 352.794v-27.132c0-8.296 6.725-15.022 15.022-15.022h-38.79c-8.296 0-15.022 6.726-15.022 15.022v27.132a7.5 7.5 0 0 0 7.501 7.501h38.79a7.502 7.502 0 0 1-7.501-7.501zM74.245 304.255v-27.132c0-8.296 6.726-15.022 15.022-15.022h-38.79c-8.296 0-15.022 6.726-15.022 15.022v27.132a7.5 7.5 0 0 0 7.501 7.501h38.79a7.5 7.5 0 0 1-7.501-7.501z"></path><circle cx="74.258" cy="214.025" r="25.12"></circle><path d="M74.262 188.904c-19.182-.019-31.471 20.863-21.76 37.683 9.711 16.819 33.942 16.618 43.515-.002-19.342-.02-31.405-20.928-21.755-37.681zm422.496 292.614H15.238C6.822 481.518 0 488.34 0 496.757c0 8.416 6.822 15.238 15.238 15.238h481.52c8.415 0 15.238-6.822 15.238-15.238s-6.822-15.239-15.238-15.239z"></path><path d="M54.549 496.757c0-8.416 6.822-15.238 15.238-15.238H15.238C6.822 481.518 0 488.34 0 496.757c0 8.416 6.822 15.238 15.238 15.238h54.549c-8.416 0-15.238-6.822-15.238-15.238z"></path><circle cx="195.388" cy="262.565" r="25.12"></circle><path d="M195.388 237.442c-19.182-.019-31.471 20.863-21.76 37.683 6.938 12.017 22.304 16.135 34.321 9.197a24.995 24.995 0 0 0 9.194-9.199c-19.342-.02-31.404-20.928-21.755-37.681z"></path><circle cx="316.508" cy="117.454" r="25.12"></circle><path d="M316.514 92.337A25.002 25.002 0 0 0 303.95 95.7c-12.017 6.938-16.134 22.303-9.196 34.32 9.711 16.819 33.942 16.618 43.515-.002-19.342-.02-31.405-20.928-21.755-37.681z"></path><circle cx="437.638" cy="25.124" r="25.12"></circle><path d="M437.639.001c-19.182-.019-31.471 20.863-21.76 37.683 9.711 16.819 33.942 16.618 43.515-.002-19.342-.02-31.404-20.928-21.755-37.681z"></path></svg><svg viewBox="0 0 512 512" width="512" height="512" id="protest" y="14183"><path d="M497.807 232.355l-29.945 5.99v-88.276l29.945 5.99A17.653 17.653 0 0 1 512 173.37v41.673c0 8.416-5.94 15.663-14.193 17.312z"></path><path d="M497.807 205.873l-29.945 5.99v26.483l29.945-5.99A17.655 17.655 0 0 0 512 215.044v-26.483c0 8.416-5.94 15.661-14.193 17.312zM26.483 256h-8.828C7.904 256 0 248.096 0 238.345v-88.276c0-9.751 7.904-17.655 17.655-17.655h8.828V256zM229.517 97.103V291.31c61.793 0 158.897 26.483 229.517 88.276V8.828c-70.62 61.793-167.724 88.275-229.517 88.275z"></path><path d="M476.69 388.414h-8.828a8.829 8.829 0 0 1-8.828-8.828V8.828A8.829 8.829 0 0 1 467.862 0h8.828a8.829 8.829 0 0 1 8.828 8.828v370.759a8.83 8.83 0 0 1-8.828 8.827zM242.05 494.345a8.83 8.83 0 0 1-8.657-7.096L194.207 291.31H97.103l39.88 199.401C139.459 503.09 150.328 512 162.952 512h79.098a8.829 8.829 0 0 0 0-17.655z"></path><path d="M211.862 291.31v10.177a8.825 8.825 0 0 1-7.377 8.707l-141.241 23.54c-5.38.897-10.279-3.252-10.279-8.707V291.31h158.897zm17.655 0H52.966c-19.501 0-35.31-15.809-35.31-35.31V132.414c0-19.501 15.809-35.31 35.31-35.31h176.552V291.31z"></path><path d="M211.862 97.103h17.655V291.31h-17.655zM17.655 229.517h194.207v61.793H52.966c-19.501 0-35.31-15.809-35.31-35.31v-26.483z"></path><path d="M211.862 229.517h17.655v61.793h-17.655zm17.655 61.793c61.793 0 158.897 26.483 229.517 88.276V273.655c-70.621-29.426-167.724-44.138-229.517-44.138v61.793zm247.173-8.827h-8.828a8.829 8.829 0 0 1-8.828-8.828v105.931a8.829 8.829 0 0 0 8.828 8.828h8.828a8.829 8.829 0 0 0 8.828-8.828V273.655a8.83 8.83 0 0 1-8.828 8.828z"></path></svg><svg viewBox="0 0 490.175 490.175" width="490.175" height="490.175" id="settings" y="14695"><path d="M221.675 167.838h17.8c2.8 14.2 8.4 27.3 16.1 38.9l-12.6 12.6c-4.5 4.5-4.5 11.8 0 16.3l13.7 13.7c4.5 4.5 11.8 4.5 16.3 0l12.6-12.6c11.6 7.8 24.8 13.3 38.9 16.1v17.8c0 6.4 5.2 11.5 11.5 11.5h19.4c6.4 0 11.5-5.2 11.5-11.5v-17.8c14.2-2.8 27.3-8.4 38.9-16.1l12.6 12.6c4.5 4.5 11.8 4.5 16.3 0l13.7-13.7c4.5-4.5 4.5-11.8 0-16.3l-12.6-12.6c7.8-11.6 13.3-24.8 16.1-38.9h17.8c6.4 0 11.5-5.2 11.5-11.5v-19.3c0-6.4-5.2-11.5-11.5-11.5h-17.8c-2.8-14.2-8.4-27.3-16.1-38.9l12.6-12.6c4.5-4.5 4.5-11.8 0-16.3l-13.8-13.7c-4.5-4.5-11.8-4.5-16.3 0l-12.6 12.6c-11.6-7.8-24.8-13.3-38.9-16.1v-17.8c0-6.4-5.2-11.5-11.5-11.5h-19.4c-6.4 0-11.5 5.2-11.5 11.5v17.8c-14.2 2.8-27.3 8.4-38.9 16.1l-12.5-12.6c-4.5-4.5-11.8-4.5-16.3 0l-13.7 13.7c-4.5 4.5-4.5 11.8 0 16.3l12.6 12.6c-7.8 11.6-13.3 24.8-16.1 38.9h-17.8c-6.4 0-11.5 5.2-11.5 11.5v19.4c0 6.3 5.1 11.4 11.5 11.4zm123.9-70.2c27.1 0 49.1 22 49.1 49.1s-22 49.1-49.1 49.1-49.1-22-49.1-49.1 22-49.1 49.1-49.1z" fill="#5fbcf9"></path><path d="M346.275 380.538c-1.4 3.5-5.4 5.1-8.8 3.7l-22.6-9.4c-4-1.7-8.6-.3-11 3.3a138.36 138.36 0 0 1-38.5 38.5c-3.6 2.4-5 7-3.3 11l9.3 22.6c1.4 3.4-.2 7.4-3.7 8.8l-24.6 10.3c-3.4 1.4-7.4-.2-8.8-3.7l-9.4-22.6c-1.7-4-5.9-6.3-10.1-5.4-18 3.6-36.3 3.6-54.4 0-4.2-.8-8.5 1.4-10.1 5.4l-9.4 22.6c-1.4 3.4-5.4 5.1-8.8 3.7l-24.6-10.2c-1.7-.7-3-2-3.7-3.7s-.7-3.5 0-5.2l9.4-22.6c1.7-4 .3-8.6-3.3-11a138.36 138.36 0 0 1-38.5-38.5c-2.4-3.6-7-5-11-3.3l-22.6 9.4c-3.5 1.4-7.4-.2-8.8-3.7l-10.2-24.6c-1.4-3.4.2-7.4 3.7-8.8l22.6-9.4c4-1.7 6.3-5.9 5.4-10.1-3.6-18-3.6-36.3 0-54.4.8-4.2-1.4-8.5-5.4-10.1l-22.6-9.4c-1.7-.7-3-2-3.7-3.7s-.7-3.5 0-5.2l10.2-24.6c.7-1.7 2-3 3.7-3.7s3.5-.7 5.2 0l22.6 9.4c4 1.7 8.6.3 11-3.3 10.2-15.3 23.2-28.3 38.5-38.5 3.6-2.4 5-7 3.3-11l-9.4-22.6c-.7-1.7-.7-3.5 0-5.2s2-3 3.7-3.7l24.6-10.2c3.4-1.4 7.4.2 8.8 3.7l9.4 22.6c1.9 4.6 7.2 6.8 11.8 4.9 4.6-1.9 6.8-7.2 4.9-11.8l-9.4-22.6c-5.3-12.7-19.8-18.7-32.5-13.5l-24.6 10.2c-6.1 2.5-10.9 7.3-13.5 13.5-2.5 6.1-2.5 12.9 0 19.1l6.6 15.9c-12.6 9.3-23.7 20.4-33.1 33.1l-15.9-6.6c-6.1-2.5-12.9-2.5-19.1 0-6.1 2.5-10.9 7.3-13.5 13.5l-10.2 24.6c-2.5 6.1-2.5 12.9 0 19.1 2.5 6.1 7.3 10.9 13.5 13.5l15.9 6.6a153 153 0 0 0 0 46.8l-15.9 6.6c-12.7 5.3-18.7 19.8-13.5 32.5l10.2 24.3c5.2 12.7 19.8 18.7 32.5 13.5l15.9-6.6c9.3 12.6 20.4 23.7 33.1 33.1l-6.6 15.9c-2.5 6.1-2.5 12.9 0 19.1 2.5 6.1 7.3 10.9 13.5 13.5l24.6 10.2c12.7 5.2 27.3-.8 32.5-13.5l6.6-15.9a153 153 0 0 0 46.8 0l6.6 15.9c4 9.6 13.3 15.4 23 15.4 3.2 0 6.4-.6 9.5-1.9l24.6-10.2c12.7-5.3 18.7-19.8 13.5-32.5l-6.6-15.9c12.6-9.3 23.7-20.4 33.1-33.1l15.9 6.6c12.7 5.3 27.3-.8 32.5-13.5l10.2-24.6c2.5-6.1 2.5-12.9 0-19.1-2.5-6.1-7.3-10.9-13.5-13.5l-22.6-9.4c-4.6-1.9-9.9.3-11.8 4.9s.3 9.9 4.9 11.8l22.6 9.4c1.7.7 3 2 3.7 3.7s.7 3.5 0 5.2l-10.3 24.6z"></path><path d="M187.075 238.538c5 0 9-4.1 9-9.1s-4.1-9-9.1-9h-.1c-21.4.2-41.4 8.6-56.4 23.8-15 15.2-23.2 35.4-23 56.7.2 21.4 8.6 41.4 23.8 56.4 15.1 14.9 35 23 56.1 23h.6c21.4-.2 41.4-8.6 56.4-23.8 15-15.2 23.2-35.4 23-56.7 0-5-4.1-9-9.1-9h-.1c-5 0-9 4.1-9 9.1.1 16.5-6.2 32.1-17.8 43.9s-27.1 18.3-43.6 18.4h-.5c-16.3 0-31.8-6.3-43.4-17.8-11.8-11.6-18.3-27.1-18.4-43.6s6.2-32.1 17.8-43.9c11.8-11.7 27.3-18.3 43.8-18.4zm282.5-61.6c11.3 0 20.6-9.2 20.6-20.6v-19.3c0-11.3-9.2-20.6-20.6-20.6h-10.5c-2.7-10-6.6-19.6-11.8-28.5l7.5-7.5c8-8 8-21.1 0-29.1l-13.7-13.7c-3.9-3.9-9.1-6-14.5-6-5.5 0-10.7 2.1-14.5 6l-7.5 7.5c-9-5.2-18.5-9.2-28.5-11.8v-10.6c0-11.3-9.2-20.6-20.6-20.6h-19.4c-11.3 0-20.6 9.2-20.6 20.6v10.6c-10 2.7-19.6 6.6-28.5 11.8l-7.5-7.5c-3.9-3.9-9.1-6-14.5-6-5.5 0-10.7 2.1-14.5 6l-13.7 13.7c-8 8-8 21.1 0 29.1l7.5 7.5c-5.2 9-9.2 18.5-11.8 28.5h-10.6c-11.3 0-20.6 9.2-20.6 20.6v19.4c0 11.3 9.2 20.6 20.6 20.6h10.6c2.7 10 6.6 19.6 11.8 28.5l-7.5 7.5c-8 8-8 21.1 0 29.1l13.7 13.7c3.9 3.9 9.1 6 14.5 6 5.5 0 10.7-2.1 14.5-6l7.5-7.5c9 5.2 18.5 9.2 28.5 11.8v10.6c0 11.3 9.2 20.6 20.6 20.6h19.4c11.3 0 20.6-9.2 20.6-20.6v-10.7c10-2.7 19.6-6.6 28.5-11.8l7.5 7.5c3.9 3.9 9.1 6 14.5 6 5.5 0 10.7-2.1 14.5-6l13.7-13.7c8-8 8-21.1 0-29.1l-7.5-7.5c5.2-9 9.2-18.5 11.8-28.5h10.5zm-26.6-10.8c-2.5 12.8-7.5 24.8-14.8 35.7-2.4 3.6-1.9 8.4 1.1 11.4l12.6 12.6c1 1 1 2.5 0 3.5l-13.7 13.7c-.6.6-1.3.7-1.7.7-.5 0-1.1-.1-1.7-.7l-12.6-12.6c-3.1-3.1-7.9-3.5-11.4-1.1-10.9 7.3-22.9 12.2-35.7 14.8-4.2.8-7.3 4.6-7.3 8.9v17.8c0 1.3-1.1 2.4-2.4 2.4h-19.4c-1.3 0-2.4-1.1-2.4-2.4v-17.8c0-4.3-3.1-8-7.3-8.9-12.8-2.5-24.8-7.5-35.7-14.8-1.5-1-3.3-1.5-5-1.5-2.3 0-4.7.9-6.4 2.7l-12.6 12.6c-.6.6-1.3.7-1.7.7-.5 0-1.1-.1-1.7-.7l-13.7-13.7c-1-1-1-2.5 0-3.5l12.6-12.6c3.1-3.1 3.5-7.9 1.1-11.4-7.3-10.9-12.2-22.9-14.8-35.7-.8-4.2-4.6-7.3-8.9-7.3h-17.8c-1.3 0-2.4-1.1-2.4-2.4v-19.5c0-1.3 1.1-2.4 2.4-2.4h17.8c4.3 0 8-3.1 8.9-7.3 2.5-12.8 7.5-24.8 14.8-35.7 2.4-3.6 1.9-8.4-1.1-11.4l-12.6-12.6c-.6-.6-.7-1.3-.7-1.7 0-.5.1-1.1.7-1.7l13.6-13.8c.6-.6 1.3-.7 1.7-.7.5 0 1.1.1 1.7.7l12.6 12.6c3.1 3.1 7.9 3.5 11.4 1.1 10.9-7.3 22.9-12.2 35.7-14.8 4.2-.8 7.3-4.6 7.3-8.9v-17.7c0-1.3 1.1-2.4 2.4-2.4h19.4c1.3 0 2.4 1.1 2.4 2.4v17.8c0 4.3 3.1 8 7.3 8.9 12.8 2.5 24.8 7.5 35.7 14.8 3.6 2.4 8.4 1.9 11.4-1.1l12.6-12.6c.6-.6 1.3-.7 1.7-.7.5 0 1.1.1 1.7.7l13.7 13.7c1 1 1 2.5 0 3.5l-12.6 12.6c-3.1 3.1-3.5 7.9-1.1 11.4 7.3 10.9 12.2 22.9 14.8 35.7.8 4.2 4.6 7.3 8.9 7.3h17.8c1.3 0 2.4 1.1 2.4 2.4v19.4c0 1.3-1.1 2.4-2.4 2.4h-17.8c-4.3-.1-8 2.9-8.8 7.2z"></path><path d="M345.675 88.538c-32.1 0-58.1 26.1-58.1 58.1 0 32.1 26.1 58.1 58.1 58.1 32.1 0 58.1-26.1 58.1-58.1s-26.1-58.1-58.1-58.1zm0 98.1c-22.1 0-40-17.9-40-40s17.9-40 40-40 40 17.9 40 40-18 40-40 40z"></path></svg><svg viewBox="0 0 481.6 481.6" width="481.6" height="481.6" id="share" y="15186"><path d="M381.6 309.4c-27.7 0-52.4 13.2-68.2 33.6l-132.3-73.9c3.1-8.9 4.8-18.5 4.8-28.4 0-10-1.7-19.5-4.9-28.5l132.2-73.8c15.7 20.5 40.5 33.8 68.3 33.8 47.4 0 86.1-38.6 86.1-86.1S429 0 381.5 0s-86.1 38.6-86.1 86.1c0 10 1.7 19.6 4.9 28.5l-132.1 73.8c-15.7-20.6-40.5-33.8-68.3-33.8-47.4 0-86.1 38.6-86.1 86.1s38.7 86.1 86.2 86.1c27.8 0 52.6-13.3 68.4-33.9l132.2 73.9c-3.2 9-5 18.7-5 28.7 0 47.4 38.6 86.1 86.1 86.1s86.1-38.6 86.1-86.1-38.7-86.1-86.2-86.1zm0-282.3c32.6 0 59.1 26.5 59.1 59.1s-26.5 59.1-59.1 59.1-59.1-26.5-59.1-59.1 26.6-59.1 59.1-59.1zM100 299.8c-32.6 0-59.1-26.5-59.1-59.1s26.5-59.1 59.1-59.1 59.1 26.5 59.1 59.1-26.6 59.1-59.1 59.1zm281.6 154.7c-32.6 0-59.1-26.5-59.1-59.1s26.5-59.1 59.1-59.1 59.1 26.5 59.1 59.1-26.5 59.1-59.1 59.1z"></path></svg><svg viewBox="0 0 512 512" width="512" height="512" id="soc-facebook" y="15668"><path d="M134.941 272.691h56.123v231.051a8.256 8.256 0 0 0 8.258 8.258h95.159a8.256 8.256 0 0 0 8.258-8.258V273.78h64.519a8.26 8.26 0 0 0 8.204-7.315l9.799-85.061a8.259 8.259 0 0 0-8.202-9.203h-74.316V118.88c0-16.073 8.654-24.224 25.726-24.224h48.59a8.258 8.258 0 0 0 8.258-8.258V8.319a8.256 8.256 0 0 0-8.258-8.258h-66.965A65.863 65.863 0 0 0 307.027 0c-11.619 0-52.006 2.281-83.909 31.63-35.348 32.524-30.434 71.465-29.26 78.217v62.352H134.94a8.256 8.256 0 0 0-8.258 8.258v83.975a8.26 8.26 0 0 0 8.259 8.259z"></path></svg><svg width="96.669" height="96.669" viewBox="0 0 96.669 96.669" id="soc-google" y="16180"><path d="M50.91 55.189l-4.533-3.522c-1.38-1.144-3.27-2.656-3.27-5.422 0-2.778 1.889-4.544 3.527-6.18 5.279-4.157 10.557-8.581 10.557-17.903 0-9.586-6.031-14.629-8.923-17.022h7.795L64.244 0H39.459C32.658 0 22.856 1.608 15.68 7.533c-5.408 4.666-8.046 11.099-8.046 16.892 0 9.831 7.548 19.798 20.88 19.798 1.259 0 2.636-.124 4.022-.252-.623 1.515-1.252 2.777-1.252 4.917 0 3.905 2.006 6.299 3.774 8.567-5.663.39-16.237 1.018-24.033 5.809-7.424 4.415-9.684 10.84-9.684 15.377 0 9.334 8.8 18.028 27.045 18.028 21.636 0 33.089-11.971 33.089-23.823.002-8.707-5.028-12.992-10.565-17.657zM34.431 40.691c-10.824 0-15.727-13.992-15.727-22.434 0-3.288.623-6.682 2.763-9.333C23.486 6.4 27 4.762 30.281 4.762c10.434 0 15.846 14.118 15.846 23.197 0 2.271-.251 6.296-3.144 9.207-2.023 2.021-5.409 3.525-8.552 3.525zm.124 50.696c-13.46 0-22.139-6.438-22.139-15.392 0-8.949 8.048-11.978 10.816-12.979 5.281-1.777 12.076-2.024 13.21-2.024 1.258 0 1.887 0 2.889.126 9.568 6.81 13.721 10.203 13.721 16.65.001 7.805-6.417 13.619-18.497 13.619zm48.124-50.888V27.894h-6.224v12.605H63.869v6.294h12.586v12.684h6.224V46.793h12.649v-6.294z"></path></svg><svg width="430.117" height="430.117" viewBox="0 0 430.117 430.117" id="soc-in" y="16277"><path d="M430.117 261.543V420.56h-92.188V272.193c0-37.271-13.334-62.707-46.703-62.707-25.473 0-40.632 17.142-47.301 33.724-2.432 5.928-3.058 14.179-3.058 22.477V420.56h-92.219s1.242-251.285 0-277.32h92.21v39.309c-.187.294-.43.611-.606.896h.606v-.896c12.251-18.869 34.13-45.824 83.102-45.824 60.673-.001 106.157 39.636 106.157 124.818zM52.183 9.558C20.635 9.558 0 30.251 0 57.463c0 26.619 20.038 47.94 50.959 47.94h.616c32.159 0 52.159-21.317 52.159-47.94-.606-27.212-20-47.905-51.551-47.905zM5.477 420.56h92.184V143.24H5.477v277.32z"></path></svg><svg width="438.536" height="438.536" viewBox="0 0 438.536 438.536" id="soc-instagram" y="16708"><path d="M421.981 16.562C410.941 5.519 397.711 0 382.298 0H56.248C40.83 0 27.604 5.521 16.561 16.562 5.52 27.6.001 40.828.001 56.243V382.29c0 15.413 5.518 28.644 16.56 39.683 11.043 11.04 24.272 16.563 39.687 16.563h326.046c15.41 0 28.644-5.523 39.684-16.563 11.043-11.039 16.557-24.27 16.557-39.683V56.243c-.001-15.418-5.514-28.639-16.554-39.681zM157.462 158.025c17.224-16.652 37.924-24.982 62.097-24.982 24.36 0 45.153 8.33 62.381 24.982 17.228 16.655 25.837 36.785 25.837 60.386 0 23.598-8.609 43.729-25.837 60.379-17.228 16.659-38.014 24.988-62.381 24.988-24.172 0-44.87-8.336-62.097-24.988-17.228-16.652-25.841-36.781-25.841-60.379 0-23.601 8.613-43.73 25.841-60.386zm231.403 212.564c0 4.945-1.718 9.083-5.141 12.416-3.433 3.33-7.519 4.996-12.282 4.996h-305.2c-4.948 0-9.091-1.666-12.419-4.996-3.333-3.326-4.998-7.471-4.998-12.416V185.575H89.08c-3.805 11.993-5.708 24.462-5.708 37.402 0 36.553 13.322 67.715 39.969 93.511 26.65 25.786 58.721 38.685 96.217 38.685 24.744 0 47.583-5.903 68.527-17.703 20.937-11.807 37.486-27.839 49.676-48.112 12.183-20.272 18.274-42.4 18.274-66.38 0-12.94-1.91-25.406-5.715-37.402h38.547V370.59h-.002zm0-254.963c0 5.52-1.903 10.184-5.716 13.99-3.805 3.809-8.466 5.711-13.989 5.711h-49.676c-5.517 0-10.185-1.903-13.99-5.711-3.806-3.806-5.708-8.47-5.708-13.99V68.522c0-5.33 1.902-9.945 5.708-13.848 3.806-3.901 8.474-5.854 13.99-5.854h49.676c5.523 0 10.185 1.952 13.989 5.854 3.812 3.903 5.716 8.518 5.716 13.848v47.104z"></path></svg><svg width="95.481" height="95.481" viewBox="0 0 95.481 95.481" id="soc-ok" y="17147"><path d="M43.041 67.254c-7.402-.772-14.076-2.595-19.79-7.064-.709-.556-1.441-1.092-2.088-1.713-2.501-2.402-2.753-5.153-.774-7.988 1.693-2.426 4.535-3.075 7.489-1.682.572.27 1.117.607 1.639.969 10.649 7.317 25.278 7.519 35.967.329 1.059-.812 2.191-1.474 3.503-1.812 2.551-.655 4.93.282 6.299 2.514 1.564 2.549 1.544 5.037-.383 7.016-2.956 3.034-6.511 5.229-10.461 6.761-3.735 1.448-7.826 2.177-11.875 2.661.611.665.899.992 1.281 1.376 5.498 5.524 11.02 11.025 16.5 16.566 1.867 1.888 2.257 4.229 1.229 6.425-1.124 2.4-3.64 3.979-6.107 3.81-1.563-.108-2.782-.886-3.865-1.977-4.149-4.175-8.376-8.273-12.441-12.527-1.183-1.237-1.752-1.003-2.796.071-4.174 4.297-8.416 8.528-12.683 12.735-1.916 1.889-4.196 2.229-6.418 1.15-2.362-1.145-3.865-3.556-3.749-5.979.08-1.639.886-2.891 2.011-4.014 5.441-5.433 10.867-10.88 16.295-16.322.359-.362.694-.746 1.217-1.305z"></path><path d="M47.55 48.329c-13.205-.045-24.033-10.992-23.956-24.218C23.67 10.739 34.505-.037 47.84 0c13.362.036 24.087 10.967 24.02 24.478-.068 13.199-10.971 23.897-24.31 23.851zm12.001-24.186c-.023-6.567-5.253-11.795-11.807-11.801-6.609-.007-11.886 5.316-11.835 11.943.049 6.542 5.324 11.733 11.896 11.709 6.552-.023 11.768-5.285 11.746-11.851z"></path></svg><svg viewBox="0 0 410.155 410.155" width="410.155" height="410.155" id="soc-twitter" y="17243"><path d="M403.632 74.18a162.414 162.414 0 0 1-28.28 9.537 88.177 88.177 0 0 0 23.275-37.067c1.295-4.051-3.105-7.554-6.763-5.385a163.188 163.188 0 0 1-43.235 17.862 11.02 11.02 0 0 1-2.702.336c-2.766 0-5.455-1.027-7.57-2.891-16.156-14.239-36.935-22.081-58.508-22.081-9.335 0-18.76 1.455-28.014 4.325-28.672 8.893-50.795 32.544-57.736 61.724-2.604 10.945-3.309 21.9-2.097 32.56a3.166 3.166 0 0 1-.797 2.481 3.278 3.278 0 0 1-2.753 1.091c-62.762-5.831-119.358-36.068-159.363-85.14-2.04-2.503-5.952-2.196-7.578.593-7.834 13.44-11.974 28.812-11.974 44.454 0 23.972 9.631 46.563 26.36 63.032a79.24 79.24 0 0 1-20.169-7.808c-3.06-1.7-6.825.485-6.868 3.985-.438 35.612 20.412 67.3 51.646 81.569a79.567 79.567 0 0 1-16.786-1.399c-3.446-.658-6.341 2.611-5.271 5.952 10.138 31.651 37.39 54.981 70.002 60.278-27.066 18.169-58.585 27.753-91.39 27.753l-10.227-.006c-3.151 0-5.816 2.054-6.619 5.106-.791 3.006.666 6.177 3.353 7.74 36.966 21.513 79.131 32.883 121.955 32.883 37.485 0 72.549-7.439 104.219-22.109 29.033-13.449 54.689-32.674 76.255-57.141 20.09-22.792 35.8-49.103 46.692-78.201 10.383-27.737 15.871-57.333 15.871-85.589v-1.346c-.001-4.537 2.051-8.806 5.631-11.712a174.776 174.776 0 0 0 35.16-38.591c2.573-3.849-1.485-8.673-5.719-6.795z"></path></svg><svg viewBox="0 0 512 512" width="512" height="512" id="soc-vk" y="17654"><path d="M440.649 295.361c16.984 16.582 34.909 32.182 50.142 50.436 6.729 8.112 13.099 16.482 17.973 25.896 6.906 13.382.651 28.108-11.348 28.907l-74.59-.034c-19.238 1.596-34.585-6.148-47.489-19.302-10.327-10.519-19.891-21.714-29.821-32.588-4.071-4.444-8.332-8.626-13.422-11.932-10.182-6.609-19.021-4.586-24.84 6.034-5.926 10.802-7.271 22.762-7.853 34.8-.799 17.564-6.108 22.182-23.751 22.986-37.705 1.778-73.489-3.926-106.732-22.947-29.308-16.768-52.034-40.441-71.816-67.24-38.513-52.183-68.008-109.525-94.516-168.473-5.967-13.281-1.603-20.41 13.051-20.663 24.333-.473 48.663-.439 73.025-.034 9.89.145 16.437 5.817 20.256 15.16 13.165 32.371 29.274 63.169 49.494 91.716 5.385 7.6 10.876 15.201 18.694 20.55 8.65 5.923 15.236 3.96 19.305-5.676 2.582-6.11 3.713-12.691 4.295-19.234 1.928-22.513 2.182-44.988-1.199-67.422-2.076-14.001-9.962-23.065-23.933-25.714-7.129-1.351-6.068-4.004-2.616-8.073 5.995-7.018 11.634-11.387 22.875-11.387h84.298c13.271 2.619 16.218 8.581 18.035 21.934l.072 93.637c-.145 5.169 2.582 20.51 11.893 23.931 7.452 2.436 12.364-3.526 16.836-8.251 20.183-21.421 34.588-46.737 47.457-72.951 5.711-11.527 10.622-23.497 15.381-35.458 3.526-8.875 9.059-13.242 19.056-13.049l81.132.072c2.406 0 4.84.035 7.17.434 13.671 2.33 17.418 8.211 13.195 21.561-6.653 20.945-19.598 38.4-32.255 55.935-13.53 18.721-28.001 36.802-41.418 55.634-12.328 17.2-11.349 25.868 3.964 40.805z"></path></svg><svg width="64" height="64" viewBox="0 0 64 64" id="soc-youtube" y="18166"><path d="M37.635 41.44c-.542 0-1.088.257-1.635.79v10.999c.547.544 1.093.806 1.635.806.941 0 1.423-.806 1.423-2.434v-7.698c.001-1.632-.482-2.463-1.423-2.463zm11.966 0c-1.093 0-1.642.831-1.642 2.502v1.671h3.274v-1.671c.001-1.671-.546-2.502-1.632-2.502z"></path><path d="M56.396 29.049c-2.055-2.139-4.357-2.148-5.414-2.271-7.556-.54-18.889-.54-18.889-.54h-.025s-11.333 0-18.896.54c-1.054.123-3.352.133-5.409 2.271-1.618 1.632-2.147 5.327-2.147 5.327s-.536 4.343-.536 8.685v4.073c0 4.341.536 8.686.536 8.686s.529 3.695 2.147 5.321c2.057 2.139 4.753 2.072 5.952 2.295 4.324.413 18.365.538 18.365.538s11.347-.016 18.903-.562c1.057-.121 3.359-.133 5.414-2.271 1.619-1.626 2.147-5.321 2.147-5.321s.536-4.345.536-8.686v-4.073c0-4.342-.536-8.685-.536-8.685s-.529-3.695-2.148-5.327zM16.979 56.755h-3.642V35.953H9.486v-3.406H20.9v3.406h-3.92v20.802zm12.912 0h-3.278v-1.969c-1.299 1.489-2.54 2.221-3.742 2.221-1.054 0-1.781-.432-2.112-1.346-.178-.546-.286-1.409-.286-2.683V38.717h3.275v13.28c0 .765 0 1.164.024 1.27.083.507.336.769.771.769.658 0 1.341-.507 2.069-1.533V38.717h3.278v18.038zm12.44-5.409c0 1.663-.11 2.866-.331 3.631-.438 1.344-1.313 2.03-2.613 2.03-1.168 0-2.294-.647-3.387-1.999v1.747h-3.277V32.547H36v7.905c1.056-1.299 2.179-1.956 3.387-1.956 1.299 0 2.174.688 2.613 2.036.221.729.331 1.918.331 3.628v7.186zM54.51 48.33h-6.55v3.199c0 1.671.549 2.506 1.673 2.506.806 0 1.275-.44 1.463-1.311.029-.178.073-.908.073-2.219h3.341v.479c0 1.051-.043 1.776-.071 2.106a4.606 4.606 0 0 1-.766 1.955c-.906 1.312-2.25 1.96-3.963 1.96-1.711 0-3.014-.618-3.96-1.853-.696-.902-1.051-2.326-1.051-4.241v-6.319c0-1.927.318-3.333 1.012-4.249.946-1.234 2.249-1.849 3.922-1.849 1.643 0 2.947.614 3.863 1.849.685.916 1.015 2.322 1.015 4.249v3.738zM23.436 24.434v-9.908L27.848-.026h-3.71l-2.503 9.605L19.03-.026h-3.863c.777 2.268 1.581 4.544 2.356 6.816 1.174 3.411 1.91 5.982 2.244 7.735v9.908h3.669zm8.611.251c1.656 0 2.942-.624 3.858-1.864.692-.91 1.029-2.346 1.029-4.287v-6.387c0-1.945-.337-3.367-1.029-4.289-.917-1.25-2.202-1.87-3.858-1.87-1.654 0-2.943.62-3.854 1.87-.707.922-1.034 2.344-1.034 4.289v6.387c0 1.941.327 3.377 1.034 4.287.911 1.24 2.2 1.864 3.854 1.864zm-1.581-13.199c0-1.686.514-2.529 1.581-2.529 1.062 0 1.573.844 1.573 2.529v7.669c0 1.687-.511 2.53-1.573 2.53-1.067 0-1.581-.844-1.581-2.53v-7.669zm18.522 12.948V6.203H45.68v13.935c-.733 1.034-1.427 1.548-2.088 1.548-.445 0-.708-.265-.777-.773-.042-.109-.042-.51-.042-1.285V6.203h-3.299v14.418c0 1.289.108 2.161.293 2.711.332.92 1.068 1.353 2.133 1.353 1.204 0 2.46-.732 3.781-2.24v1.989h3.307z"></path></svg><svg viewBox="0 0 490.727 490.727" width="490.727" height="490.727" id="star" y="18230"><path d="M453.443 160.214l-119.7-8.6c-2.5-.2-4.7-1.7-5.6-4.1l-45.6-111c-6.3-15.3-20.5-24.8-37.1-24.8s-30.7 9.5-37.1 24.9l-45.7 111.1c-1 2.3-3.1 3.9-5.6 4.1l-119.5 8.6c-16.2.9-30 11.5-35.3 27.1-5.4 15.8-.9 32.4 11.9 43.3l92.5 76.4c1.9 1.6 2.8 4.2 2.2 6.6l-28.2 115.4c-3.3 12-1 24.4 6.3 34.1 7.5 9.8 19.2 15.7 31.5 15.7 7.6 0 15-2.3 21.1-6.4l101.1-62.9c2.1-1.3 4.8-1.3 6.9 0l102.1 62.7c6.4 4.3 13.8 6.6 21.3 6.6 11.5 0 22.9-5.5 30.3-14.8 7.7-9.6 10.5-22.1 7.7-34.6l-28.3-115.7c-.6-2.5.3-5.1 2.2-6.7l93.9-76.6c12.6-10.8 17.1-27.4 11.8-43.2-5.2-15.6-19.1-26.3-35.1-27.2zm7.7 51.5l-93.7 76.5c-9.2 7.5-13.4 19.9-10.5 31.5l28.3 115.5c1.5 6.8-1.2 11.5-3 13.7-2.8 3.5-7 5.7-11.2 5.7-2.6 0-5.2-.8-8-2.7l-102.5-63c-4.9-3-10.5-4.6-16.3-4.6s-11.5 1.6-16.4 4.7l-101.5 63.1c-6.5 4.3-15.2 2.4-19.8-3.6-1.9-2.5-3.9-6.8-2.1-13.1l28.3-115.8c2.8-11.5-1.3-23.8-10.4-31.3l-92.3-76.3c-7.3-6.3-5.3-14.4-4.5-16.7s4.1-10 13.7-10.5l119.7-8.6c11.8-.9 22-8.2 26.5-19.2l45.7-111.1c3.7-9 12-9.7 14.4-9.7 2.4 0 10.7.7 14.4 9.7l45.7 111.1c4.5 11 14.7 18.3 26.5 19.2l119.9 8.7c9.4.5 12.7 8.2 13.5 10.5.6 2.1 2.6 10.2-4.4 16.3z"></path></svg><svg viewBox="0 0 489.7 489.7" width="489.7" height="489.7" id="user" y="18721"><circle cx="244.9" cy="47" r="37.8" fill="#5fbcf9"></circle><circle cx="417.3" cy="343.3" r="37.8" fill="#5fbcf9"></circle><circle cx="72.5" cy="343.3" r="37.8" fill="#5fbcf9"></circle><path d="M464.2 146.5c0-25.9-21-46.9-46.9-46.9-14.1 0-26.7 6.2-35.3 16.1L289.3 62c1.6-4.7 2.5-9.8 2.5-15.1 0-25.9-21-46.9-46.9-46.9S198 21 198 46.9c0 5.3.9 10.3 2.5 15l-92.7 53.7c-8.6-9.8-21.2-16.1-35.3-16.1-25.9 0-46.9 21-46.9 46.9 0 22.4 15.8 41.2 36.8 45.8l.1 105.2c-21.1 4.6-37 23.4-37 45.8 0 25.9 21 46.9 46.9 46.9 13.8 0 26.2-6 34.8-15.5l93 53.7c-1.5 4.6-2.3 9.4-2.3 14.5 0 25.9 21 46.9 46.9 46.9s46.9-21 46.9-46.9c0-5.1-.8-9.9-2.3-14.5l93-53.7c8.6 9.5 21 15.5 34.8 15.5 25.9 0 46.9-21 46.9-46.9 0-22.7-16.3-41.8-37.8-46V192.4c21.6-4.1 37.9-23.1 37.9-45.9zm-46.9-28.8c15.9 0 28.8 12.9 28.8 28.8s-12.9 28.8-28.8 28.8-28.8-12.9-28.8-28.8 13-28.8 28.8-28.8zM244.9 18.2c15.9 0 28.8 12.9 28.8 28.8 0 4.9-1.2 9.5-3.4 13.6-.2.2-.3.4-.5.7l-.3.6c-5 8.3-14.2 13.9-24.6 13.9-15.9 0-28.8-12.9-28.8-28.8s12.9-28.8 28.8-28.8zM43.7 146.5c0-15.9 12.9-28.8 28.8-28.8s28.8 12.9 28.8 28.8-12.9 28.8-28.8 28.8-28.8-12.9-28.8-28.8zm28.8 225.6c-15.9 0-28.8-12.9-28.8-28.8s12.9-28.8 28.8-28.8 28.8 12.9 28.8 28.8c-.1 15.9-13 28.8-28.8 28.8zm172.4 99.5c-15.9 0-28.8-12.9-28.8-28.8S229 414 244.9 414s28.8 12.9 28.8 28.8-12.9 28.8-28.8 28.8zm35.7-59.1c-8.6-10.1-21.4-16.6-35.7-16.6s-27.1 6.4-35.7 16.6l-92.6-53.4c1.8-4.9 2.8-10.3 2.8-15.8 0-23.1-16.7-42.3-38.7-46.2l-.1-104.5c22-3.8 38.8-23.1 38.8-46.2 0-5.3-.9-10.4-2.5-15.1l92.7-53.7c8.6 9.9 21.3 16.1 35.4 16.1 14.1 0 26.7-6.2 35.3-16.1l92.7 53.7c-1.6 4.7-2.5 9.8-2.5 15.1 0 22.7 16.3 41.8 37.8 46v104.8c-21.5 4.2-37.8 23.2-37.8 46 0 5.6 1 10.9 2.8 15.8l-92.7 53.5zm165.5-69.2c0 15.9-12.9 28.8-28.8 28.8s-28.8-12.9-28.8-28.8 12.9-28.8 28.8-28.8 28.8 12.9 28.8 28.8z"></path><path d="M288.6 281.1v-32.7c5.5-5.3 8.6-12.6 8.6-20.4v-42.9c0-26.3-21.4-47.7-47.7-47.7h-9.2c-26.3 0-47.7 21.4-47.7 47.7V228c0 7.8 3.2 15.1 8.6 20.4v32.7c-10.4 5.4-35.4 19.1-58.8 38.3-3.9 3.2-4.4 8.9-1.2 12.8s8.9 4.4 12.8 1.2c25.9-21.3 53.9-35.4 59.3-38 3.8-1.9 6.1-5.6 6.1-9.9v-41.4c0-3-1.5-5.9-4-7.5-2.9-1.9-4.6-5.1-4.6-8.6v-42.9c0-16.3 13.3-29.6 29.6-29.6h9.2c16.3 0 29.6 13.3 29.6 29.6V228c0 3.4-1.7 6.6-4.6 8.6-2.5 1.7-4 4.5-4 7.5v41.4c0 4.2 2.4 8 6.2 9.9 5.4 2.6 33.4 16.8 59.3 38 1.7 1.4 3.7 2.1 5.7 2.1 2.6 0 5.2-1.1 7-3.3 3.2-3.9 2.6-9.6-1.2-12.8-23.6-19.2-48.6-33-59-38.3z"></path></svg><svg viewBox="0 0 512 512" width="512" height="512" id="youtube" y="19211"><path d="M490.24 113.92c-13.888-24.704-28.96-29.248-59.648-30.976C399.936 80.864 322.848 80 256.064 80c-66.912 0-144.032.864-174.656 2.912-30.624 1.76-45.728 6.272-59.744 31.008C7.36 138.592 0 181.088 0 255.904v.256c0 74.496 7.36 117.312 21.664 141.728 14.016 24.704 29.088 29.184 59.712 31.264C112.032 430.944 189.152 432 256.064 432c66.784 0 143.872-1.056 174.56-2.816 30.688-2.08 45.76-6.56 59.648-31.264C504.704 373.504 512 330.688 512 256.192v-.256c0-74.848-7.296-117.344-21.76-142.016zM192 352V160l160 96-160 96z"></path></svg></svg>